<mxfile host="app.diagrams.net" modified="2021-06-16T16:41:16.661Z" agent="5.0 (Windows NT 10.0; Win64; x64) AppleWebKit/537.36 (KHTML, like Gecko) Chrome/91.0.4472.101 Safari/537.36" etag="H-75P-mfIOYO0jOsFKd4" version="14.7.7" type="github">
  <diagram id="aqdzWppsX0e-HGsmjgMF" name="Page-1">
    <mxGraphModel dx="5226" dy="2816" grid="0" gridSize="10" guides="1" tooltips="1" connect="1" arrows="1" fold="1" page="1" pageScale="1" pageWidth="1169" pageHeight="827" math="0" shadow="0">
      <root>
        <mxCell id="0" />
        <mxCell id="1" parent="0" />
        <mxCell id="zqkboVq3bq7hmdZX6oqV-1" value="" style="edgeStyle=orthogonalEdgeStyle;rounded=0;orthogonalLoop=1;jettySize=auto;html=1;" edge="1" parent="1" source="zqkboVq3bq7hmdZX6oqV-2" target="zqkboVq3bq7hmdZX6oqV-4">
          <mxGeometry relative="1" as="geometry" />
        </mxCell>
        <mxCell id="zqkboVq3bq7hmdZX6oqV-2" value="PC" style="rounded=0;whiteSpace=wrap;html=1;" vertex="1" parent="1">
          <mxGeometry x="-90" y="415" width="40" height="60" as="geometry" />
        </mxCell>
        <mxCell id="zqkboVq3bq7hmdZX6oqV-3" value="" style="edgeStyle=orthogonalEdgeStyle;rounded=0;orthogonalLoop=1;jettySize=auto;html=1;" edge="1" parent="1" source="zqkboVq3bq7hmdZX6oqV-4" target="zqkboVq3bq7hmdZX6oqV-8">
          <mxGeometry relative="1" as="geometry">
            <Array as="points">
              <mxPoint x="212" y="445" />
              <mxPoint x="212" y="445" />
            </Array>
          </mxGeometry>
        </mxCell>
        <mxCell id="zqkboVq3bq7hmdZX6oqV-4" value="Instruction&lt;br&gt;memory" style="rounded=0;whiteSpace=wrap;html=1;" vertex="1" parent="1">
          <mxGeometry x="70" y="375" width="100" height="140" as="geometry" />
        </mxCell>
        <mxCell id="zqkboVq3bq7hmdZX6oqV-5" style="edgeStyle=orthogonalEdgeStyle;rounded=0;orthogonalLoop=1;jettySize=auto;html=1;entryX=0;entryY=0.5;entryDx=0;entryDy=0;strokeWidth=3;" edge="1" parent="1" source="zqkboVq3bq7hmdZX6oqV-8" target="zqkboVq3bq7hmdZX6oqV-95">
          <mxGeometry relative="1" as="geometry">
            <Array as="points">
              <mxPoint x="272" y="445" />
              <mxPoint x="272" y="445" />
            </Array>
          </mxGeometry>
        </mxCell>
        <mxCell id="zqkboVq3bq7hmdZX6oqV-6" style="edgeStyle=orthogonalEdgeStyle;rounded=0;orthogonalLoop=1;jettySize=auto;html=1;exitX=1;exitY=0.038;exitDx=0;exitDy=0;entryX=0.025;entryY=0.218;entryDx=0;entryDy=0;entryPerimeter=0;labelBackgroundColor=#FFFFFF;fontSize=8;endArrow=classic;endFill=1;strokeColor=#000000;strokeWidth=1;exitPerimeter=0;" edge="1" parent="1" source="zqkboVq3bq7hmdZX6oqV-8" target="zqkboVq3bq7hmdZX6oqV-36">
          <mxGeometry relative="1" as="geometry">
            <Array as="points">
              <mxPoint x="260" y="200" />
            </Array>
          </mxGeometry>
        </mxCell>
        <mxCell id="zqkboVq3bq7hmdZX6oqV-7" value="&lt;font style=&quot;font-size: 11px&quot;&gt;PC&lt;/font&gt;" style="edgeLabel;html=1;align=center;verticalAlign=middle;resizable=0;points=[];fontSize=8;" vertex="1" connectable="0" parent="zqkboVq3bq7hmdZX6oqV-6">
          <mxGeometry x="0.1657" y="1" relative="1" as="geometry">
            <mxPoint as="offset" />
          </mxGeometry>
        </mxCell>
        <mxCell id="zqkboVq3bq7hmdZX6oqV-8" value="IF/ID" style="rounded=0;whiteSpace=wrap;html=1;" vertex="1" parent="1">
          <mxGeometry x="220" y="186" width="40" height="424" as="geometry" />
        </mxCell>
        <mxCell id="zqkboVq3bq7hmdZX6oqV-9" style="edgeStyle=orthogonalEdgeStyle;rounded=0;orthogonalLoop=1;jettySize=auto;html=1;entryX=0.5;entryY=0;entryDx=0;entryDy=0;fillColor=#dae8fc;strokeColor=#6c8ebf;" edge="1" parent="1" target="zqkboVq3bq7hmdZX6oqV-28">
          <mxGeometry relative="1" as="geometry">
            <mxPoint x="645" y="-173.00000000000045" as="sourcePoint" />
          </mxGeometry>
        </mxCell>
        <mxCell id="zqkboVq3bq7hmdZX6oqV-10" value="ID/EX&lt;br&gt;stall" style="edgeLabel;html=1;align=center;verticalAlign=middle;resizable=0;points=[];" vertex="1" connectable="0" parent="zqkboVq3bq7hmdZX6oqV-9">
          <mxGeometry x="0.6212" y="-3" relative="1" as="geometry">
            <mxPoint x="1" y="-36" as="offset" />
          </mxGeometry>
        </mxCell>
        <mxCell id="zqkboVq3bq7hmdZX6oqV-11" style="edgeStyle=orthogonalEdgeStyle;rounded=0;orthogonalLoop=1;jettySize=auto;html=1;entryX=0.25;entryY=0;entryDx=0;entryDy=0;fillColor=#dae8fc;strokeColor=#6c8ebf;" edge="1" parent="1" source="zqkboVq3bq7hmdZX6oqV-17" target="zqkboVq3bq7hmdZX6oqV-240">
          <mxGeometry relative="1" as="geometry">
            <Array as="points">
              <mxPoint x="430" y="-292" />
              <mxPoint x="-106" y="-292" />
            </Array>
          </mxGeometry>
        </mxCell>
        <mxCell id="zqkboVq3bq7hmdZX6oqV-12" value="IF&lt;br&gt;stall" style="edgeLabel;html=1;align=center;verticalAlign=middle;resizable=0;points=[];" vertex="1" connectable="0" parent="zqkboVq3bq7hmdZX6oqV-11">
          <mxGeometry x="0.3749" y="1" relative="1" as="geometry">
            <mxPoint x="-1" y="275" as="offset" />
          </mxGeometry>
        </mxCell>
        <mxCell id="zqkboVq3bq7hmdZX6oqV-13" style="edgeStyle=orthogonalEdgeStyle;rounded=0;orthogonalLoop=1;jettySize=auto;html=1;exitX=0.75;exitY=1;exitDx=0;exitDy=0;fillColor=#dae8fc;strokeColor=#6c8ebf;entryX=0.5;entryY=0;entryDx=0;entryDy=0;" edge="1" parent="1" source="zqkboVq3bq7hmdZX6oqV-17" target="zqkboVq3bq7hmdZX6oqV-275">
          <mxGeometry relative="1" as="geometry">
            <mxPoint x="240" y="150" as="targetPoint" />
            <Array as="points">
              <mxPoint x="460" y="-164" />
              <mxPoint x="240" y="-164" />
            </Array>
          </mxGeometry>
        </mxCell>
        <mxCell id="zqkboVq3bq7hmdZX6oqV-14" value="flush- F/D buffer" style="edgeLabel;html=1;align=center;verticalAlign=middle;resizable=0;points=[];" vertex="1" connectable="0" parent="zqkboVq3bq7hmdZX6oqV-13">
          <mxGeometry x="-0.2587" relative="1" as="geometry">
            <mxPoint x="8" as="offset" />
          </mxGeometry>
        </mxCell>
        <mxCell id="zqkboVq3bq7hmdZX6oqV-15" style="edgeStyle=orthogonalEdgeStyle;rounded=0;orthogonalLoop=1;jettySize=auto;html=1;exitX=0.5;exitY=1;exitDx=0;exitDy=0;entryX=0.5;entryY=0;entryDx=0;entryDy=0;fillColor=#dae8fc;strokeColor=#6c8ebf;" edge="1" parent="1" source="zqkboVq3bq7hmdZX6oqV-17" target="zqkboVq3bq7hmdZX6oqV-251">
          <mxGeometry relative="1" as="geometry" />
        </mxCell>
        <mxCell id="zqkboVq3bq7hmdZX6oqV-16" value="flush-execute" style="edgeLabel;html=1;align=center;verticalAlign=middle;resizable=0;points=[];" vertex="1" connectable="0" parent="zqkboVq3bq7hmdZX6oqV-15">
          <mxGeometry x="0.4441" y="2" relative="1" as="geometry">
            <mxPoint y="2" as="offset" />
          </mxGeometry>
        </mxCell>
        <mxCell id="zqkboVq3bq7hmdZX6oqV-17" value="Hazard Detection&lt;br&gt;Unit" style="rounded=0;whiteSpace=wrap;html=1;" vertex="1" parent="1">
          <mxGeometry x="370" y="-260" width="120" height="60" as="geometry" />
        </mxCell>
        <mxCell id="zqkboVq3bq7hmdZX6oqV-18" style="edgeStyle=orthogonalEdgeStyle;rounded=0;orthogonalLoop=1;jettySize=auto;html=1;exitX=0;exitY=0.9;exitDx=0;exitDy=0;exitPerimeter=0;" edge="1" parent="1" source="zqkboVq3bq7hmdZX6oqV-101">
          <mxGeometry relative="1" as="geometry">
            <mxPoint x="600" y="370" as="sourcePoint" />
            <mxPoint x="740" y="416" as="targetPoint" />
            <Array as="points">
              <mxPoint x="700" y="350" />
              <mxPoint x="700" y="416" />
              <mxPoint x="740" y="416" />
            </Array>
          </mxGeometry>
        </mxCell>
        <mxCell id="zqkboVq3bq7hmdZX6oqV-19" value="data 1" style="edgeLabel;align=center;verticalAlign=middle;resizable=0;points=[];fontSize=9;horizontal=1;labelPosition=center;verticalLabelPosition=middle;labelBorderColor=none;html=1;spacingTop=0;spacingLeft=0;spacingRight=0;spacing=2;" vertex="1" connectable="0" parent="zqkboVq3bq7hmdZX6oqV-18">
          <mxGeometry x="-0.3108" relative="1" as="geometry">
            <mxPoint as="offset" />
          </mxGeometry>
        </mxCell>
        <mxCell id="zqkboVq3bq7hmdZX6oqV-20" style="edgeStyle=orthogonalEdgeStyle;rounded=0;orthogonalLoop=1;jettySize=auto;html=1;exitX=1.001;exitY=0.551;exitDx=0;exitDy=0;fontSize=9;exitPerimeter=0;entryX=-0.009;entryY=0.168;entryDx=0;entryDy=0;entryPerimeter=0;" edge="1" parent="1" target="zqkboVq3bq7hmdZX6oqV-198">
          <mxGeometry relative="1" as="geometry">
            <mxPoint x="630.159999999999" y="467.2000000000003" as="sourcePoint" />
            <mxPoint x="740" y="467.0100000000002" as="targetPoint" />
            <Array as="points">
              <mxPoint x="685" y="467" />
              <mxPoint x="685" y="560" />
              <mxPoint x="545" y="560" />
              <mxPoint x="545" y="638" />
            </Array>
          </mxGeometry>
        </mxCell>
        <mxCell id="zqkboVq3bq7hmdZX6oqV-21" value="data 2" style="edgeLabel;html=1;align=center;verticalAlign=middle;resizable=0;points=[];fontSize=8;" vertex="1" connectable="0" parent="zqkboVq3bq7hmdZX6oqV-20">
          <mxGeometry x="-0.8429" y="-1" relative="1" as="geometry">
            <mxPoint y="-1" as="offset" />
          </mxGeometry>
        </mxCell>
        <mxCell id="zqkboVq3bq7hmdZX6oqV-22" value="&lt;font style=&quot;font-size: 9px&quot;&gt;Rdst(data)&lt;/font&gt;" style="edgeStyle=orthogonalEdgeStyle;rounded=0;orthogonalLoop=1;jettySize=auto;html=1;entryX=-0.009;entryY=0.897;entryDx=0;entryDy=0;entryPerimeter=0;fontSize=10;exitX=0.5;exitY=1;exitDx=0;exitDy=0;" edge="1" parent="1" source="zqkboVq3bq7hmdZX6oqV-260" target="zqkboVq3bq7hmdZX6oqV-36">
          <mxGeometry x="0.3466" relative="1" as="geometry">
            <Array as="points">
              <mxPoint x="667" y="790" />
            </Array>
            <mxPoint as="offset" />
            <mxPoint x="667" y="593" as="sourcePoint" />
          </mxGeometry>
        </mxCell>
        <mxCell id="zqkboVq3bq7hmdZX6oqV-23" value="Registers" style="rounded=1;whiteSpace=wrap;html=1;" vertex="1" parent="1">
          <mxGeometry x="470" y="300" width="160" height="210" as="geometry" />
        </mxCell>
        <mxCell id="zqkboVq3bq7hmdZX6oqV-24" style="edgeStyle=orthogonalEdgeStyle;rounded=0;orthogonalLoop=1;jettySize=auto;html=1;exitX=1.012;exitY=0.382;exitDx=0;exitDy=0;entryX=0;entryY=0.5;entryDx=0;entryDy=0;exitPerimeter=0;strokeWidth=2;" edge="1" parent="1" source="zqkboVq3bq7hmdZX6oqV-28" target="zqkboVq3bq7hmdZX6oqV-64">
          <mxGeometry relative="1" as="geometry">
            <Array as="points">
              <mxPoint x="702" y="8" />
              <mxPoint x="702" y="-80" />
            </Array>
          </mxGeometry>
        </mxCell>
        <mxCell id="zqkboVq3bq7hmdZX6oqV-25" style="edgeStyle=orthogonalEdgeStyle;rounded=0;orthogonalLoop=1;jettySize=auto;html=1;exitX=1;exitY=0.5;exitDx=0;exitDy=0;entryX=0;entryY=0.5;entryDx=0;entryDy=0;strokeWidth=2;" edge="1" parent="1" source="zqkboVq3bq7hmdZX6oqV-28" target="zqkboVq3bq7hmdZX6oqV-62">
          <mxGeometry relative="1" as="geometry">
            <Array as="points">
              <mxPoint x="713" y="20" />
              <mxPoint x="713" y="-40" />
            </Array>
          </mxGeometry>
        </mxCell>
        <mxCell id="zqkboVq3bq7hmdZX6oqV-26" style="edgeStyle=orthogonalEdgeStyle;rounded=0;orthogonalLoop=1;jettySize=auto;html=1;entryX=0;entryY=0.5;entryDx=0;entryDy=0;strokeWidth=2;" edge="1" parent="1" target="zqkboVq3bq7hmdZX6oqV-60">
          <mxGeometry relative="1" as="geometry">
            <Array as="points">
              <mxPoint x="722" y="35" />
              <mxPoint x="722" />
            </Array>
            <mxPoint x="660" y="35" as="sourcePoint" />
          </mxGeometry>
        </mxCell>
        <mxCell id="zqkboVq3bq7hmdZX6oqV-27" style="edgeStyle=orthogonalEdgeStyle;rounded=0;orthogonalLoop=1;jettySize=auto;html=1;exitX=1;exitY=0.25;exitDx=0;exitDy=0;entryX=0;entryY=0.5;entryDx=0;entryDy=0;fontSize=11;strokeWidth=2;" edge="1" parent="1" source="zqkboVq3bq7hmdZX6oqV-28" target="zqkboVq3bq7hmdZX6oqV-245">
          <mxGeometry relative="1" as="geometry">
            <Array as="points">
              <mxPoint x="691" y="-5" />
              <mxPoint x="691" y="-114" />
            </Array>
          </mxGeometry>
        </mxCell>
        <mxCell id="zqkboVq3bq7hmdZX6oqV-28" value="MUX&lt;br&gt;2x1" style="rounded=1;whiteSpace=wrap;html=1;" vertex="1" parent="1">
          <mxGeometry x="630" y="-30" width="30" height="100" as="geometry" />
        </mxCell>
        <mxCell id="zqkboVq3bq7hmdZX6oqV-29" value="0" style="edgeStyle=orthogonalEdgeStyle;rounded=0;orthogonalLoop=1;jettySize=auto;html=1;entryX=-0.041;entryY=0.703;entryDx=0;entryDy=0;entryPerimeter=0;" edge="1" parent="1" target="zqkboVq3bq7hmdZX6oqV-28">
          <mxGeometry x="-0.8779" relative="1" as="geometry">
            <mxPoint x="580" y="75" as="targetPoint" />
            <mxPoint x="596" y="40" as="sourcePoint" />
            <Array as="points">
              <mxPoint x="599" y="40" />
            </Array>
            <mxPoint as="offset" />
          </mxGeometry>
        </mxCell>
        <mxCell id="zqkboVq3bq7hmdZX6oqV-30" value="&lt;span style=&quot;color: rgb(0, 0, 0); font-family: helvetica; font-style: normal; font-weight: 400; letter-spacing: normal; text-align: center; text-indent: 0px; text-transform: none; word-spacing: 0px; display: inline; float: none;&quot;&gt;&lt;font style=&quot;font-size: 9px&quot;&gt;Rdst (addr)&lt;/font&gt;&lt;/span&gt;" style="edgeStyle=orthogonalEdgeStyle;rounded=0;orthogonalLoop=1;jettySize=auto;html=1;entryX=-0.007;entryY=0.659;entryDx=0;entryDy=0;fontSize=9;entryPerimeter=0;labelBorderColor=none;labelBackgroundColor=#FFFFFF;" edge="1" parent="1">
          <mxGeometry x="-0.0896" relative="1" as="geometry">
            <mxPoint x="785" y="801" as="sourcePoint" />
            <mxPoint x="1272.6849999999995" y="801.0887499999999" as="targetPoint" />
            <Array as="points">
              <mxPoint x="910" y="801" />
              <mxPoint x="910" y="801" />
            </Array>
            <mxPoint as="offset" />
          </mxGeometry>
        </mxCell>
        <mxCell id="zqkboVq3bq7hmdZX6oqV-31" style="edgeStyle=orthogonalEdgeStyle;rounded=0;orthogonalLoop=1;jettySize=auto;html=1;exitX=1.002;exitY=0.282;exitDx=0;exitDy=0;entryX=0.015;entryY=0.2;entryDx=0;entryDy=0;fontSize=6;exitPerimeter=0;entryPerimeter=0;" edge="1" parent="1" target="zqkboVq3bq7hmdZX6oqV-112">
          <mxGeometry relative="1" as="geometry">
            <mxPoint x="785.0900000000001" y="415.7399999999998" as="sourcePoint" />
            <mxPoint x="840" y="416" as="targetPoint" />
            <Array as="points">
              <mxPoint x="813" y="416" />
            </Array>
          </mxGeometry>
        </mxCell>
        <mxCell id="zqkboVq3bq7hmdZX6oqV-32" value="&lt;span style=&quot;font-size: 6px;&quot;&gt;regFileData 1&lt;/span&gt;" style="edgeLabel;html=1;align=center;verticalAlign=middle;resizable=0;points=[];fontSize=6;labelBackgroundColor=#FFFFFF;" vertex="1" connectable="0" parent="zqkboVq3bq7hmdZX6oqV-31">
          <mxGeometry x="-0.3231" y="1" relative="1" as="geometry">
            <mxPoint as="offset" />
          </mxGeometry>
        </mxCell>
        <mxCell id="zqkboVq3bq7hmdZX6oqV-33" style="edgeStyle=orthogonalEdgeStyle;rounded=0;orthogonalLoop=1;jettySize=auto;html=1;entryX=-0.017;entryY=0.226;entryDx=0;entryDy=0;entryPerimeter=0;fontSize=10;" edge="1" parent="1" source="zqkboVq3bq7hmdZX6oqV-36" target="zqkboVq3bq7hmdZX6oqV-116">
          <mxGeometry relative="1" as="geometry">
            <Array as="points">
              <mxPoint x="810" y="560" />
              <mxPoint x="810" y="560" />
            </Array>
          </mxGeometry>
        </mxCell>
        <mxCell id="zqkboVq3bq7hmdZX6oqV-34" value="&lt;span style=&quot;font-size: 6px; background-color: rgb(255, 255, 255);&quot;&gt;regFileData 2&lt;/span&gt;" style="edgeLabel;html=1;align=center;verticalAlign=middle;resizable=0;points=[];fontSize=6;" vertex="1" connectable="0" parent="zqkboVq3bq7hmdZX6oqV-33">
          <mxGeometry x="-0.3201" y="1" relative="1" as="geometry">
            <mxPoint x="-6" as="offset" />
          </mxGeometry>
        </mxCell>
        <mxCell id="zqkboVq3bq7hmdZX6oqV-35" value="PC" style="edgeStyle=orthogonalEdgeStyle;rounded=0;orthogonalLoop=1;jettySize=auto;html=1;fontSize=10;endArrow=classic;endFill=1;strokeColor=#000000;strokeWidth=1;entryX=0.036;entryY=0.245;entryDx=0;entryDy=0;entryPerimeter=0;" edge="1" parent="1" source="zqkboVq3bq7hmdZX6oqV-36" target="zqkboVq3bq7hmdZX6oqV-166">
          <mxGeometry relative="1" as="geometry">
            <mxPoint x="1110" y="382" as="targetPoint" />
            <Array as="points">
              <mxPoint x="880" y="370" />
              <mxPoint x="880" y="370" />
            </Array>
          </mxGeometry>
        </mxCell>
        <mxCell id="zqkboVq3bq7hmdZX6oqV-36" value="ID/EX" style="rounded=0;whiteSpace=wrap;html=1;" vertex="1" parent="1">
          <mxGeometry x="740" y="10" width="45" height="870" as="geometry" />
        </mxCell>
        <mxCell id="zqkboVq3bq7hmdZX6oqV-37" value="&lt;span style=&quot;background-color: rgb(255 , 255 , 255)&quot;&gt;&lt;font face=&quot;helvetica&quot;&gt;ALU output&lt;br&gt;&lt;/font&gt;(address)&lt;/span&gt;" style="edgeStyle=orthogonalEdgeStyle;rounded=0;orthogonalLoop=1;jettySize=auto;html=1;exitX=1.005;exitY=0.424;exitDx=0;exitDy=0;entryX=0;entryY=0.25;entryDx=0;entryDy=0;exitPerimeter=0;fontSize=9;" edge="1" parent="1" source="zqkboVq3bq7hmdZX6oqV-40" target="zqkboVq3bq7hmdZX6oqV-128">
          <mxGeometry x="0.0489" relative="1" as="geometry">
            <Array as="points">
              <mxPoint x="1318" y="383" />
            </Array>
            <mxPoint as="offset" />
          </mxGeometry>
        </mxCell>
        <mxCell id="zqkboVq3bq7hmdZX6oqV-38" value="&lt;span style=&quot;color: rgb(0 , 0 , 0) ; font-family: &amp;#34;helvetica&amp;#34; ; font-style: normal ; font-weight: 400 ; letter-spacing: normal ; text-align: center ; text-indent: 0px ; text-transform: none ; word-spacing: 0px ; display: inline ; float: none ; background-color: rgb(255 , 255 , 255)&quot;&gt;&lt;font style=&quot;font-size: 9px&quot;&gt;Rdst (addr)&lt;/font&gt;&lt;/span&gt;" style="edgeStyle=orthogonalEdgeStyle;rounded=0;orthogonalLoop=1;jettySize=auto;html=1;entryX=-0.02;entryY=0.67;entryDx=0;entryDy=0;entryPerimeter=0;fontSize=9;" edge="1" parent="1">
          <mxGeometry x="-0.3258" relative="1" as="geometry">
            <mxPoint x="1318" y="801.4000000000001" as="sourcePoint" />
            <mxPoint x="1662.1000000000004" y="801.3499999999999" as="targetPoint" />
            <Array as="points">
              <mxPoint x="1420" y="801" />
            </Array>
            <mxPoint as="offset" />
          </mxGeometry>
        </mxCell>
        <mxCell id="zqkboVq3bq7hmdZX6oqV-39" value="&lt;span style=&quot;color: rgb(0 , 0 , 0) ; font-family: &amp;quot;helvetica&amp;quot; ; font-style: normal ; font-weight: 400 ; letter-spacing: normal ; text-align: center ; text-indent: 0px ; text-transform: none ; word-spacing: 0px ; display: inline ; float: none&quot;&gt;&lt;font style=&quot;font-size: 9px&quot;&gt;&lt;span style=&quot;&quot;&gt;Rdst (da&lt;/span&gt;&lt;span style=&quot;&quot;&gt;ta)&lt;/span&gt;&lt;/font&gt;&lt;/span&gt;" style="edgeStyle=orthogonalEdgeStyle;rounded=0;orthogonalLoop=1;jettySize=auto;html=1;exitX=0.999;exitY=0.891;exitDx=0;exitDy=0;entryX=-0.01;entryY=0.681;entryDx=0;entryDy=0;fontSize=8;exitPerimeter=0;shadow=0;entryPerimeter=0;labelBackgroundColor=#FFFFFF;" edge="1" parent="1" source="zqkboVq3bq7hmdZX6oqV-40" target="zqkboVq3bq7hmdZX6oqV-177">
          <mxGeometry x="-0.5222" relative="1" as="geometry">
            <Array as="points">
              <mxPoint x="1318" y="790" />
              <mxPoint x="1370" y="790" />
              <mxPoint x="1370" y="519" />
            </Array>
            <mxPoint as="offset" />
          </mxGeometry>
        </mxCell>
        <mxCell id="zqkboVq3bq7hmdZX6oqV-40" value="EX/M" style="rounded=0;whiteSpace=wrap;html=1;" vertex="1" parent="1">
          <mxGeometry x="1273" y="20" width="45" height="860" as="geometry" />
        </mxCell>
        <mxCell id="zqkboVq3bq7hmdZX6oqV-41" style="edgeStyle=orthogonalEdgeStyle;rounded=0;orthogonalLoop=1;jettySize=auto;html=1;exitX=0.999;exitY=0.244;exitDx=0;exitDy=0;exitPerimeter=0;" edge="1" parent="1" source="zqkboVq3bq7hmdZX6oqV-42">
          <mxGeometry relative="1" as="geometry">
            <mxPoint x="1662" y="410" as="targetPoint" />
            <Array as="points" />
          </mxGeometry>
        </mxCell>
        <mxCell id="zqkboVq3bq7hmdZX6oqV-42" value="&lt;span&gt;Data Memory&lt;/span&gt;" style="rounded=0;whiteSpace=wrap;html=1;" vertex="1" parent="1">
          <mxGeometry x="1470" y="367.5" width="120" height="175" as="geometry" />
        </mxCell>
        <mxCell id="zqkboVq3bq7hmdZX6oqV-43" value="ALU output" style="edgeStyle=orthogonalEdgeStyle;rounded=0;orthogonalLoop=1;jettySize=auto;html=1;exitX=1.01;exitY=0.487;exitDx=0;exitDy=0;entryX=0;entryY=0.75;entryDx=0;entryDy=0;exitPerimeter=0;" edge="1" parent="1" source="zqkboVq3bq7hmdZX6oqV-46" target="zqkboVq3bq7hmdZX6oqV-50">
          <mxGeometry x="0.672" y="-20" relative="1" as="geometry">
            <Array as="points">
              <mxPoint x="1740" y="570" />
              <mxPoint x="1740" y="465" />
            </Array>
            <mxPoint as="offset" />
          </mxGeometry>
        </mxCell>
        <mxCell id="zqkboVq3bq7hmdZX6oqV-44" value="Rdst(addr)" style="edgeStyle=orthogonalEdgeStyle;rounded=0;orthogonalLoop=1;jettySize=auto;html=1;entryX=0;entryY=0.5;entryDx=0;entryDy=0;fontSize=9;" edge="1" parent="1" source="zqkboVq3bq7hmdZX6oqV-46" target="zqkboVq3bq7hmdZX6oqV-99">
          <mxGeometry x="-0.931" y="12" relative="1" as="geometry">
            <Array as="points">
              <mxPoint x="1740" y="800" />
              <mxPoint x="1740" y="900" />
              <mxPoint x="393" y="900" />
              <mxPoint x="393" y="428" />
              <mxPoint x="470" y="428" />
            </Array>
            <mxPoint as="offset" />
          </mxGeometry>
        </mxCell>
        <mxCell id="zqkboVq3bq7hmdZX6oqV-45" value="&lt;font style=&quot;font-size: 8px;&quot;&gt;mem output&lt;/font&gt;" style="edgeStyle=orthogonalEdgeStyle;rounded=0;orthogonalLoop=1;jettySize=auto;html=1;exitX=0.997;exitY=0.224;exitDx=0;exitDy=0;fontSize=8;exitPerimeter=0;verticalAlign=middle;" edge="1" parent="1">
          <mxGeometry x="0.2248" relative="1" as="geometry">
            <Array as="points">
              <mxPoint x="1768" y="411" />
              <mxPoint x="1768" y="411" />
            </Array>
            <mxPoint x="1705.8649999999998" y="410.52" as="sourcePoint" />
            <mxPoint x="1791" y="410.52" as="targetPoint" />
            <mxPoint as="offset" />
          </mxGeometry>
        </mxCell>
        <mxCell id="zqkboVq3bq7hmdZX6oqV-46" value="M/WB" style="rounded=0;whiteSpace=wrap;html=1;" vertex="1" parent="1">
          <mxGeometry x="1663" y="275" width="45" height="605" as="geometry" />
        </mxCell>
        <mxCell id="zqkboVq3bq7hmdZX6oqV-47" style="edgeStyle=orthogonalEdgeStyle;rounded=0;orthogonalLoop=1;jettySize=auto;html=1;exitX=0.914;exitY=0.518;exitDx=0;exitDy=0;exitPerimeter=0;" edge="1" parent="1" source="zqkboVq3bq7hmdZX6oqV-108">
          <mxGeometry relative="1" as="geometry">
            <mxPoint x="1661" y="570" as="targetPoint" />
            <Array as="points">
              <mxPoint x="1373" y="571" />
            </Array>
            <mxPoint x="1342" y="570" as="sourcePoint" />
          </mxGeometry>
        </mxCell>
        <mxCell id="zqkboVq3bq7hmdZX6oqV-48" value="WB" style="edgeStyle=orthogonalEdgeStyle;rounded=0;orthogonalLoop=1;jettySize=auto;html=1;entryX=0;entryY=0.5;entryDx=0;entryDy=0;fontSize=12;" edge="1" parent="1" source="zqkboVq3bq7hmdZX6oqV-50" target="zqkboVq3bq7hmdZX6oqV-100">
          <mxGeometry x="-0.9224" relative="1" as="geometry">
            <Array as="points">
              <mxPoint x="1880" y="440" />
              <mxPoint x="1880" y="910" />
              <mxPoint x="420" y="910" />
              <mxPoint x="420" y="480" />
            </Array>
            <mxPoint as="offset" />
          </mxGeometry>
        </mxCell>
        <mxCell id="zqkboVq3bq7hmdZX6oqV-49" value="WB data" style="edgeLabel;html=1;align=center;verticalAlign=middle;resizable=0;points=[];fontSize=10;" vertex="1" connectable="0" parent="zqkboVq3bq7hmdZX6oqV-48">
          <mxGeometry x="0.9674" y="2" relative="1" as="geometry">
            <mxPoint x="-9" y="27" as="offset" />
          </mxGeometry>
        </mxCell>
        <mxCell id="zqkboVq3bq7hmdZX6oqV-50" value="MUX&lt;br&gt;2x1" style="rounded=1;whiteSpace=wrap;html=1;" vertex="1" parent="1">
          <mxGeometry x="1793" y="390" width="50" height="100" as="geometry" />
        </mxCell>
        <mxCell id="zqkboVq3bq7hmdZX6oqV-51" value="CLRC sig" style="edgeStyle=orthogonalEdgeStyle;rounded=0;orthogonalLoop=1;jettySize=auto;html=1;exitX=0.998;exitY=0.612;exitDx=0;exitDy=0;fontSize=10;strokeWidth=1;endArrow=oval;endFill=0;exitPerimeter=0;fillColor=#dae8fc;strokeColor=#6c8ebf;" edge="1" parent="1" source="zqkboVq3bq7hmdZX6oqV-60">
          <mxGeometry x="0.6875" relative="1" as="geometry">
            <mxPoint x="1130" y="101.99999999999955" as="targetPoint" />
            <Array as="points">
              <mxPoint x="825" y="4" />
              <mxPoint x="825" y="94" />
              <mxPoint x="1130" y="94" />
            </Array>
            <mxPoint as="offset" />
          </mxGeometry>
        </mxCell>
        <mxCell id="zqkboVq3bq7hmdZX6oqV-52" value="SETC sig" style="edgeStyle=orthogonalEdgeStyle;rounded=0;orthogonalLoop=1;jettySize=auto;html=1;exitX=1;exitY=0.5;exitDx=0;exitDy=0;fontSize=10;strokeWidth=1;entryX=0;entryY=0.25;entryDx=0;entryDy=0;entryPerimeter=0;endArrow=none;endFill=0;fillColor=#dae8fc;strokeColor=#6c8ebf;" edge="1" parent="1" target="zqkboVq3bq7hmdZX6oqV-155">
          <mxGeometry x="0.8085" relative="1" as="geometry">
            <Array as="points">
              <mxPoint x="785" y="-3" />
              <mxPoint x="830" y="-3" />
              <mxPoint x="830" y="85" />
              <mxPoint x="1140" y="85" />
            </Array>
            <mxPoint as="offset" />
            <mxPoint x="785" y="-5" as="sourcePoint" />
            <mxPoint x="1140" y="100" as="targetPoint" />
          </mxGeometry>
        </mxCell>
        <mxCell id="zqkboVq3bq7hmdZX6oqV-53" value="Br-type" style="edgeStyle=orthogonalEdgeStyle;rounded=0;orthogonalLoop=1;jettySize=auto;html=1;exitX=1.005;exitY=0.924;exitDx=0;exitDy=0;fontSize=10;endArrow=classic;endFill=1;strokeColor=#6c8ebf;strokeWidth=1;entryX=0;entryY=0.5;entryDx=0;entryDy=0;fillColor=#dae8fc;exitPerimeter=0;" edge="1" parent="1" source="zqkboVq3bq7hmdZX6oqV-60" target="zqkboVq3bq7hmdZX6oqV-150">
          <mxGeometry x="0.3615" y="11" relative="1" as="geometry">
            <mxPoint x="830" y="210" as="targetPoint" />
            <Array as="points">
              <mxPoint x="808" y="17" />
              <mxPoint x="808" y="227" />
            </Array>
            <mxPoint as="offset" />
          </mxGeometry>
        </mxCell>
        <mxCell id="zqkboVq3bq7hmdZX6oqV-54" value="Br-op" style="edgeStyle=orthogonalEdgeStyle;rounded=0;orthogonalLoop=1;jettySize=auto;html=1;exitX=1.003;exitY=0.855;exitDx=0;exitDy=0;fontSize=10;endArrow=none;endFill=0;strokeColor=#6c8ebf;strokeWidth=1;fillColor=#dae8fc;entryX=0;entryY=0.25;entryDx=0;entryDy=0;entryPerimeter=0;exitPerimeter=0;" edge="1" parent="1" source="zqkboVq3bq7hmdZX6oqV-60" target="zqkboVq3bq7hmdZX6oqV-162">
          <mxGeometry x="0.5185" relative="1" as="geometry">
            <mxPoint x="920" y="160" as="targetPoint" />
            <Array as="points">
              <mxPoint x="816" y="14" />
              <mxPoint x="816" y="155" />
            </Array>
            <mxPoint as="offset" />
          </mxGeometry>
        </mxCell>
        <mxCell id="zqkboVq3bq7hmdZX6oqV-55" value="Enable&lt;br style=&quot;font-size: 9px&quot;&gt;out-Port" style="edgeStyle=orthogonalEdgeStyle;rounded=0;orthogonalLoop=1;jettySize=auto;html=1;exitX=1;exitY=0.25;exitDx=0;exitDy=0;entryX=0.641;entryY=0.005;entryDx=0;entryDy=0;fontSize=9;endArrow=classic;endFill=1;strokeWidth=1;fillColor=#dae8fc;strokeColor=#6c8ebf;entryPerimeter=0;" edge="1" parent="1" source="zqkboVq3bq7hmdZX6oqV-60" target="zqkboVq3bq7hmdZX6oqV-136">
          <mxGeometry x="0.9625" y="10" relative="1" as="geometry">
            <Array as="points">
              <mxPoint x="840" y="-10" />
              <mxPoint x="840" y="70" />
              <mxPoint x="1230" y="70" />
            </Array>
            <mxPoint as="offset" />
          </mxGeometry>
        </mxCell>
        <mxCell id="zqkboVq3bq7hmdZX6oqV-56" style="edgeStyle=orthogonalEdgeStyle;rounded=0;orthogonalLoop=1;jettySize=auto;html=1;exitX=0.998;exitY=0.124;exitDx=0;exitDy=0;exitPerimeter=0;entryX=0.5;entryY=0;entryDx=0;entryDy=0;fillColor=#dae8fc;strokeColor=#6c8ebf;" edge="1" parent="1" source="zqkboVq3bq7hmdZX6oqV-60" target="zqkboVq3bq7hmdZX6oqV-217">
          <mxGeometry relative="1" as="geometry">
            <mxPoint x="877.79060967024" y="-15.325619010038054" as="targetPoint" />
            <Array as="points">
              <mxPoint x="848" y="-15" />
              <mxPoint x="848" y="64" />
              <mxPoint x="1238" y="64" />
              <mxPoint x="1238" y="698" />
              <mxPoint x="1045" y="698" />
            </Array>
          </mxGeometry>
        </mxCell>
        <mxCell id="zqkboVq3bq7hmdZX6oqV-57" value="ALU op" style="edgeLabel;html=1;align=center;verticalAlign=middle;resizable=0;points=[];" vertex="1" connectable="0" parent="zqkboVq3bq7hmdZX6oqV-56">
          <mxGeometry x="0.8956" y="1" relative="1" as="geometry">
            <mxPoint x="56" y="-1" as="offset" />
          </mxGeometry>
        </mxCell>
        <mxCell id="zqkboVq3bq7hmdZX6oqV-58" value="" style="edgeStyle=orthogonalEdgeStyle;rounded=0;orthogonalLoop=1;jettySize=auto;html=1;exitX=1.001;exitY=0.075;exitDx=0;exitDy=0;entryX=1.001;entryY=0.528;entryDx=0;entryDy=0;fillColor=#dae8fc;strokeColor=#6c8ebf;exitPerimeter=0;entryPerimeter=0;" edge="1" parent="1" source="zqkboVq3bq7hmdZX6oqV-60" target="zqkboVq3bq7hmdZX6oqV-145">
          <mxGeometry relative="1" as="geometry">
            <mxPoint x="1172" y="245" as="targetPoint" />
            <Array as="points">
              <mxPoint x="785" y="-18" />
              <mxPoint x="855" y="-18" />
              <mxPoint x="855" y="57" />
              <mxPoint x="1183" y="57" />
              <mxPoint x="1183" y="245" />
            </Array>
          </mxGeometry>
        </mxCell>
        <mxCell id="zqkboVq3bq7hmdZX6oqV-59" value="upd&lt;br&gt;flags" style="edgeLabel;html=1;align=center;verticalAlign=middle;resizable=0;points=[];" vertex="1" connectable="0" parent="zqkboVq3bq7hmdZX6oqV-58">
          <mxGeometry x="0.5971" y="1" relative="1" as="geometry">
            <mxPoint as="offset" />
          </mxGeometry>
        </mxCell>
        <mxCell id="zqkboVq3bq7hmdZX6oqV-60" value="EX" style="rounded=0;whiteSpace=wrap;html=1;" vertex="1" parent="1">
          <mxGeometry x="740" y="-20" width="45" height="40" as="geometry" />
        </mxCell>
        <mxCell id="zqkboVq3bq7hmdZX6oqV-61" style="edgeStyle=orthogonalEdgeStyle;rounded=0;orthogonalLoop=1;jettySize=auto;html=1;exitX=1;exitY=0.5;exitDx=0;exitDy=0;entryX=0;entryY=0.5;entryDx=0;entryDy=0;strokeWidth=2;fillColor=#dae8fc;strokeColor=#6c8ebf;" edge="1" parent="1" source="zqkboVq3bq7hmdZX6oqV-62" target="zqkboVq3bq7hmdZX6oqV-70">
          <mxGeometry relative="1" as="geometry">
            <Array as="points">
              <mxPoint x="1211" y="-40" />
              <mxPoint x="1211" />
            </Array>
          </mxGeometry>
        </mxCell>
        <mxCell id="zqkboVq3bq7hmdZX6oqV-62" value="M" style="rounded=0;whiteSpace=wrap;html=1;" vertex="1" parent="1">
          <mxGeometry x="740" y="-60" width="45" height="40" as="geometry" />
        </mxCell>
        <mxCell id="zqkboVq3bq7hmdZX6oqV-63" style="edgeStyle=orthogonalEdgeStyle;rounded=0;orthogonalLoop=1;jettySize=auto;html=1;entryX=0;entryY=0.5;entryDx=0;entryDy=0;strokeWidth=2;fillColor=#dae8fc;strokeColor=#6c8ebf;" edge="1" parent="1" source="zqkboVq3bq7hmdZX6oqV-64" target="zqkboVq3bq7hmdZX6oqV-74">
          <mxGeometry relative="1" as="geometry">
            <mxPoint x="1060" y="230" as="targetPoint" />
            <Array as="points">
              <mxPoint x="1234" y="-80" />
              <mxPoint x="1234" y="-40" />
            </Array>
          </mxGeometry>
        </mxCell>
        <mxCell id="zqkboVq3bq7hmdZX6oqV-64" value="WB" style="rounded=0;whiteSpace=wrap;html=1;" vertex="1" parent="1">
          <mxGeometry x="740" y="-100" width="45" height="40" as="geometry" />
        </mxCell>
        <mxCell id="zqkboVq3bq7hmdZX6oqV-65" value="mem&lt;br&gt;addr" style="edgeStyle=orthogonalEdgeStyle;rounded=0;orthogonalLoop=1;jettySize=auto;html=1;exitX=1.002;exitY=0.629;exitDx=0;exitDy=0;entryX=0.5;entryY=0;entryDx=0;entryDy=0;fontSize=9;endArrow=classic;endFill=1;strokeWidth=1;fillColor=#dae8fc;strokeColor=#6c8ebf;exitPerimeter=0;" edge="1" parent="1" source="zqkboVq3bq7hmdZX6oqV-70" target="zqkboVq3bq7hmdZX6oqV-128">
          <mxGeometry relative="1" as="geometry">
            <Array as="points">
              <mxPoint x="1432" y="5" />
            </Array>
          </mxGeometry>
        </mxCell>
        <mxCell id="zqkboVq3bq7hmdZX6oqV-66" value="mem&lt;br&gt;data" style="edgeStyle=orthogonalEdgeStyle;rounded=0;orthogonalLoop=1;jettySize=auto;html=1;exitX=1;exitY=0.75;exitDx=0;exitDy=0;entryX=0.5;entryY=0;entryDx=0;entryDy=0;fontSize=9;endArrow=classic;endFill=1;strokeWidth=1;fillColor=#dae8fc;strokeColor=#6c8ebf;" edge="1" parent="1" source="zqkboVq3bq7hmdZX6oqV-70" target="zqkboVq3bq7hmdZX6oqV-177">
          <mxGeometry relative="1" as="geometry">
            <Array as="points">
              <mxPoint x="1405" y="10" />
              <mxPoint x="1405" y="465" />
              <mxPoint x="1432" y="465" />
            </Array>
          </mxGeometry>
        </mxCell>
        <mxCell id="zqkboVq3bq7hmdZX6oqV-67" value="mem&lt;br&gt;sig" style="edgeStyle=orthogonalEdgeStyle;rounded=0;orthogonalLoop=1;jettySize=auto;html=1;exitX=1.005;exitY=0.441;exitDx=0;exitDy=0;entryX=0.5;entryY=0;entryDx=0;entryDy=0;fontSize=9;endArrow=classic;endFill=1;strokeWidth=1;fillColor=#dae8fc;strokeColor=#6c8ebf;exitPerimeter=0;" edge="1" parent="1" source="zqkboVq3bq7hmdZX6oqV-70" target="zqkboVq3bq7hmdZX6oqV-42">
          <mxGeometry relative="1" as="geometry">
            <Array as="points">
              <mxPoint x="1530" y="-3" />
            </Array>
          </mxGeometry>
        </mxCell>
        <mxCell id="zqkboVq3bq7hmdZX6oqV-68" value="Sp&lt;br&gt;sig" style="edgeStyle=orthogonalEdgeStyle;rounded=0;orthogonalLoop=1;jettySize=auto;html=1;exitX=1;exitY=0.25;exitDx=0;exitDy=0;entryX=1;entryY=0.5;entryDx=0;entryDy=0;fontSize=8;endArrow=classic;endFill=1;strokeWidth=1;fillColor=#dae8fc;strokeColor=#6c8ebf;" edge="1" parent="1" source="zqkboVq3bq7hmdZX6oqV-70" target="zqkboVq3bq7hmdZX6oqV-126">
          <mxGeometry relative="1" as="geometry">
            <Array as="points">
              <mxPoint x="1548" y="-10" />
              <mxPoint x="1548" y="357" />
              <mxPoint x="1598" y="357" />
              <mxPoint x="1598" y="611" />
              <mxPoint x="1532" y="611" />
            </Array>
          </mxGeometry>
        </mxCell>
        <mxCell id="zqkboVq3bq7hmdZX6oqV-69" value="&lt;font style=&quot;font-size: 9px&quot;&gt;inst&lt;br&gt;type&lt;/font&gt;" style="edgeStyle=orthogonalEdgeStyle;rounded=0;orthogonalLoop=1;jettySize=auto;html=1;exitX=0.999;exitY=0.858;exitDx=0;exitDy=0;entryX=0.5;entryY=0;entryDx=0;entryDy=0;fontSize=5;endArrow=classic;endFill=1;fillColor=#dae8fc;strokeColor=#6c8ebf;exitPerimeter=0;" edge="1" parent="1" source="zqkboVq3bq7hmdZX6oqV-70" target="zqkboVq3bq7hmdZX6oqV-272">
          <mxGeometry relative="1" as="geometry">
            <Array as="points">
              <mxPoint x="1374" y="14" />
            </Array>
          </mxGeometry>
        </mxCell>
        <mxCell id="zqkboVq3bq7hmdZX6oqV-70" value="M" style="rounded=0;whiteSpace=wrap;html=1;" vertex="1" parent="1">
          <mxGeometry x="1273" y="-20.25" width="45" height="40" as="geometry" />
        </mxCell>
        <mxCell id="zqkboVq3bq7hmdZX6oqV-71" style="edgeStyle=orthogonalEdgeStyle;rounded=0;orthogonalLoop=1;jettySize=auto;html=1;exitX=1;exitY=0.5;exitDx=0;exitDy=0;entryX=0;entryY=0.5;entryDx=0;entryDy=0;fontSize=9;strokeWidth=2;fillColor=#dae8fc;strokeColor=#6c8ebf;" edge="1" parent="1" source="zqkboVq3bq7hmdZX6oqV-74" target="zqkboVq3bq7hmdZX6oqV-78">
          <mxGeometry relative="1" as="geometry">
            <Array as="points">
              <mxPoint x="1620" y="-40" />
              <mxPoint x="1620" y="255" />
            </Array>
          </mxGeometry>
        </mxCell>
        <mxCell id="zqkboVq3bq7hmdZX6oqV-72" style="edgeStyle=orthogonalEdgeStyle;rounded=0;orthogonalLoop=1;jettySize=auto;html=1;exitX=1;exitY=0.75;exitDx=0;exitDy=0;entryX=1;entryY=0.75;entryDx=0;entryDy=0;fillColor=#dae8fc;strokeColor=#6c8ebf;" edge="1" parent="1" source="zqkboVq3bq7hmdZX6oqV-74" target="zqkboVq3bq7hmdZX6oqV-190">
          <mxGeometry relative="1" as="geometry">
            <Array as="points">
              <mxPoint x="1324" y="-30" />
              <mxPoint x="1324" y="1025" />
            </Array>
          </mxGeometry>
        </mxCell>
        <mxCell id="zqkboVq3bq7hmdZX6oqV-73" value="ex/m wb en" style="edgeLabel;html=1;align=center;verticalAlign=middle;resizable=0;points=[];" vertex="1" connectable="0" parent="zqkboVq3bq7hmdZX6oqV-72">
          <mxGeometry x="0.9293" y="1" relative="1" as="geometry">
            <mxPoint as="offset" />
          </mxGeometry>
        </mxCell>
        <mxCell id="zqkboVq3bq7hmdZX6oqV-74" value="WB" style="rounded=0;whiteSpace=wrap;html=1;" vertex="1" parent="1">
          <mxGeometry x="1273" y="-60.25" width="45" height="40" as="geometry" />
        </mxCell>
        <mxCell id="zqkboVq3bq7hmdZX6oqV-75" value="wb sig" style="edgeStyle=orthogonalEdgeStyle;rounded=0;orthogonalLoop=1;jettySize=auto;html=1;exitX=1;exitY=0.5;exitDx=0;exitDy=0;entryX=0.5;entryY=0;entryDx=0;entryDy=0;fontSize=12;fillColor=#dae8fc;strokeColor=#6c8ebf;" edge="1" parent="1" source="zqkboVq3bq7hmdZX6oqV-78" target="zqkboVq3bq7hmdZX6oqV-50">
          <mxGeometry x="0.6408" relative="1" as="geometry">
            <mxPoint as="offset" />
          </mxGeometry>
        </mxCell>
        <mxCell id="zqkboVq3bq7hmdZX6oqV-76" value="&lt;font style=&quot;font-size: 12px&quot;&gt;&amp;nbsp;wb en&amp;nbsp;&lt;/font&gt;" style="edgeStyle=orthogonalEdgeStyle;rounded=0;orthogonalLoop=1;jettySize=auto;html=1;exitX=1;exitY=0.25;exitDx=0;exitDy=0;fontSize=8;endArrow=classic;endFill=1;strokeWidth=1;fillColor=#dae8fc;strokeColor=#6c8ebf;" edge="1" parent="1" source="zqkboVq3bq7hmdZX6oqV-78">
          <mxGeometry x="0.9435" relative="1" as="geometry">
            <mxPoint x="550" y="300" as="targetPoint" />
            <Array as="points">
              <mxPoint x="1906" y="245" />
              <mxPoint x="1906" y="1176" />
              <mxPoint x="719" y="1176" />
              <mxPoint x="719" y="245" />
              <mxPoint x="550" y="245" />
              <mxPoint x="550" y="300" />
            </Array>
            <mxPoint as="offset" />
          </mxGeometry>
        </mxCell>
        <mxCell id="zqkboVq3bq7hmdZX6oqV-77" value="wb en" style="edgeLabel;html=1;align=center;verticalAlign=middle;resizable=0;points=[];" vertex="1" connectable="0" parent="zqkboVq3bq7hmdZX6oqV-76">
          <mxGeometry x="-0.8308" y="-1" relative="1" as="geometry">
            <mxPoint as="offset" />
          </mxGeometry>
        </mxCell>
        <mxCell id="zqkboVq3bq7hmdZX6oqV-78" value="WB" style="rounded=0;whiteSpace=wrap;html=1;" vertex="1" parent="1">
          <mxGeometry x="1663" y="235" width="45" height="40" as="geometry" />
        </mxCell>
        <mxCell id="zqkboVq3bq7hmdZX6oqV-79" value="Z&amp;amp;N&amp;nbsp;&lt;br&gt;flags" style="edgeStyle=orthogonalEdgeStyle;rounded=0;orthogonalLoop=1;jettySize=auto;html=1;exitX=0.497;exitY=0.152;exitDx=0;exitDy=0;fontSize=10;endArrow=classic;endFill=1;strokeColor=#000000;strokeWidth=1;entryX=0.581;entryY=1.002;entryDx=0;entryDy=0;entryPerimeter=0;exitPerimeter=0;" edge="1" parent="1" source="zqkboVq3bq7hmdZX6oqV-81" target="zqkboVq3bq7hmdZX6oqV-145">
          <mxGeometry x="0.8357" relative="1" as="geometry">
            <mxPoint x="1120" y="280" as="targetPoint" />
            <mxPoint as="offset" />
            <Array as="points">
              <mxPoint x="1040" y="350" />
              <mxPoint x="1120" y="350" />
            </Array>
          </mxGeometry>
        </mxCell>
        <mxCell id="zqkboVq3bq7hmdZX6oqV-80" value="flags&lt;br&gt;out" style="edgeLabel;html=1;align=center;verticalAlign=middle;resizable=0;points=[];" vertex="1" connectable="0" parent="zqkboVq3bq7hmdZX6oqV-79">
          <mxGeometry x="-0.882" relative="1" as="geometry">
            <mxPoint x="-1" y="-6" as="offset" />
          </mxGeometry>
        </mxCell>
        <mxCell id="zqkboVq3bq7hmdZX6oqV-81" value="" style="shape=stencil(tZXRjoIwEEW/pq+bQsPq6wb1PyqOS2NtSdvV3b93oGCs0I0IJISkc7mHIb1DCcttySsgKS0J25A0TSjFO66vT2tuKyicL164EXwvwSvWGX2Cqzi4liFUCUa4WmVbQr/wmfpieaGVQojQygbKg44wLhR66a+Hta//C1YV8s/gwLRNNtXd68yPbAFqskSnIbPre95OZ6KGvSaL7NQ81ORNJsuxEgsxy/e8OH0b/aMOfVdUO2oDA8JdFlL6AYt9YMXruesJnXzWF/h/moawnVsK9eC+/wxaP5sKWI0FPGWMTvOvx9qz0P+ZTfOzsf7Q/sL+FVLbaHKwHgkPHguDmWs8vcQ2VX+ONIUb);whiteSpace=wrap;html=1;" vertex="1" parent="1">
          <mxGeometry x="1000" y="510" width="80" height="174" as="geometry" />
        </mxCell>
        <mxCell id="zqkboVq3bq7hmdZX6oqV-82" style="edgeStyle=orthogonalEdgeStyle;rounded=0;orthogonalLoop=1;jettySize=auto;html=1;entryX=-0.005;entryY=0.672;entryDx=0;entryDy=0;entryPerimeter=0;fontSize=9;" edge="1" parent="1" source="zqkboVq3bq7hmdZX6oqV-83" target="zqkboVq3bq7hmdZX6oqV-40">
          <mxGeometry relative="1" as="geometry">
            <mxPoint x="1272.73" y="597.0025" as="targetPoint" />
            <Array as="points">
              <mxPoint x="1217" y="598" />
            </Array>
          </mxGeometry>
        </mxCell>
        <mxCell id="zqkboVq3bq7hmdZX6oqV-83" value="ALU" style="text;html=1;strokeColor=none;fillColor=none;align=center;verticalAlign=middle;whiteSpace=wrap;rounded=0;" vertex="1" parent="1">
          <mxGeometry x="1040" y="587" width="40" height="20" as="geometry" />
        </mxCell>
        <mxCell id="zqkboVq3bq7hmdZX6oqV-84" value="&lt;font style=&quot;font-size: 7px&quot;&gt;inst[23-20]&lt;/font&gt;" style="edgeStyle=orthogonalEdgeStyle;rounded=0;orthogonalLoop=1;jettySize=auto;html=1;entryX=0;entryY=0.5;entryDx=0;entryDy=0;" edge="1" parent="1" source="zqkboVq3bq7hmdZX6oqV-95" target="zqkboVq3bq7hmdZX6oqV-96">
          <mxGeometry x="0.6299" relative="1" as="geometry">
            <Array as="points">
              <mxPoint x="300" y="350" />
            </Array>
            <mxPoint as="offset" />
          </mxGeometry>
        </mxCell>
        <mxCell id="zqkboVq3bq7hmdZX6oqV-85" value="&lt;font style=&quot;font-size: 7px&quot;&gt;inst[19-16]&lt;/font&gt;" style="edgeStyle=orthogonalEdgeStyle;rounded=0;orthogonalLoop=1;jettySize=auto;html=1;exitX=0.761;exitY=0.371;exitDx=0;exitDy=0;entryX=0;entryY=0.5;entryDx=0;entryDy=0;exitPerimeter=0;" edge="1" parent="1" source="zqkboVq3bq7hmdZX6oqV-95" target="zqkboVq3bq7hmdZX6oqV-97">
          <mxGeometry x="0.5204" relative="1" as="geometry">
            <Array as="points">
              <mxPoint x="309" y="439" />
              <mxPoint x="309" y="439" />
              <mxPoint x="309" y="380" />
            </Array>
            <mxPoint as="offset" />
          </mxGeometry>
        </mxCell>
        <mxCell id="zqkboVq3bq7hmdZX6oqV-86" value="inst[10-6]" style="edgeStyle=orthogonalEdgeStyle;rounded=0;orthogonalLoop=1;jettySize=auto;html=1;fontSize=7;entryX=-0.005;entryY=0.6;entryDx=0;entryDy=0;entryPerimeter=0;" edge="1" parent="1" source="zqkboVq3bq7hmdZX6oqV-95" target="zqkboVq3bq7hmdZX6oqV-198">
          <mxGeometry x="0.0453" relative="1" as="geometry">
            <mxPoint x="510" y="510" as="targetPoint" />
            <Array as="points">
              <mxPoint x="310" y="681" />
            </Array>
            <mxPoint as="offset" />
          </mxGeometry>
        </mxCell>
        <mxCell id="zqkboVq3bq7hmdZX6oqV-87" value="shamt" style="edgeLabel;html=1;align=center;verticalAlign=middle;resizable=0;points=[];fontSize=10;" vertex="1" connectable="0" parent="zqkboVq3bq7hmdZX6oqV-86">
          <mxGeometry x="0.89" y="1" relative="1" as="geometry">
            <mxPoint x="1" as="offset" />
          </mxGeometry>
        </mxCell>
        <mxCell id="zqkboVq3bq7hmdZX6oqV-88" value="&lt;font style=&quot;font-size: 7px;&quot;&gt;inst[15-0]&lt;/font&gt;" style="edgeStyle=orthogonalEdgeStyle;rounded=0;orthogonalLoop=1;jettySize=auto;html=1;fontSize=7;entryX=-0.006;entryY=0.836;entryDx=0;entryDy=0;labelBackgroundColor=#ffffff;entryPerimeter=0;" edge="1" parent="1" source="zqkboVq3bq7hmdZX6oqV-95" target="zqkboVq3bq7hmdZX6oqV-198">
          <mxGeometry x="0.0871" relative="1" as="geometry">
            <mxPoint x="310" y="580" as="targetPoint" />
            <Array as="points">
              <mxPoint x="302" y="705" />
              <mxPoint x="576" y="705" />
            </Array>
            <mxPoint as="offset" />
          </mxGeometry>
        </mxCell>
        <mxCell id="zqkboVq3bq7hmdZX6oqV-89" value="Imm/offset" style="edgeLabel;html=1;align=center;verticalAlign=middle;resizable=0;points=[];fontSize=10;" vertex="1" connectable="0" parent="zqkboVq3bq7hmdZX6oqV-88">
          <mxGeometry x="0.8176" y="-1" relative="1" as="geometry">
            <mxPoint as="offset" />
          </mxGeometry>
        </mxCell>
        <mxCell id="zqkboVq3bq7hmdZX6oqV-90" value="&lt;font style=&quot;font-size: 9px&quot;&gt;inst[29-24]&lt;/font&gt;" style="edgeStyle=orthogonalEdgeStyle;rounded=0;orthogonalLoop=1;jettySize=auto;html=1;exitX=0.19;exitY=0.128;exitDx=0;exitDy=0;fontSize=12;endArrow=classic;endFill=1;strokeWidth=1;entryX=0;entryY=0.5;entryDx=0;entryDy=0;exitPerimeter=0;" edge="1" parent="1" source="zqkboVq3bq7hmdZX6oqV-95" target="zqkboVq3bq7hmdZX6oqV-110">
          <mxGeometry x="-0.5438" relative="1" as="geometry">
            <mxPoint x="312.04856146655015" y="85.44664342195074" as="targetPoint" />
            <Array as="points">
              <mxPoint x="294" y="-5" />
            </Array>
            <mxPoint as="offset" />
          </mxGeometry>
        </mxCell>
        <mxCell id="zqkboVq3bq7hmdZX6oqV-91" value="OpCode" style="edgeLabel;html=1;align=center;verticalAlign=middle;resizable=0;points=[];" vertex="1" connectable="0" parent="zqkboVq3bq7hmdZX6oqV-90">
          <mxGeometry x="0.7668" relative="1" as="geometry">
            <mxPoint x="10" as="offset" />
          </mxGeometry>
        </mxCell>
        <mxCell id="zqkboVq3bq7hmdZX6oqV-92" style="edgeStyle=orthogonalEdgeStyle;rounded=0;orthogonalLoop=1;jettySize=auto;html=1;exitX=0.246;exitY=0.863;exitDx=0;exitDy=0;entryX=0.5;entryY=0;entryDx=0;entryDy=0;labelBackgroundColor=#FFFFFF;fontSize=10;endArrow=classic;endFill=1;strokeColor=#6c8ebf;strokeWidth=1;fillColor=#dae8fc;exitPerimeter=0;" edge="1" parent="1" source="zqkboVq3bq7hmdZX6oqV-95" target="zqkboVq3bq7hmdZX6oqV-198">
          <mxGeometry relative="1" as="geometry">
            <Array as="points">
              <mxPoint x="294" y="459" />
              <mxPoint x="294" y="592" />
              <mxPoint x="625" y="592" />
            </Array>
          </mxGeometry>
        </mxCell>
        <mxCell id="zqkboVq3bq7hmdZX6oqV-93" value="inst[31-30]" style="edgeLabel;html=1;align=center;verticalAlign=middle;resizable=0;points=[];fontSize=7;" vertex="1" connectable="0" parent="zqkboVq3bq7hmdZX6oqV-92">
          <mxGeometry x="-0.1697" y="-1" relative="1" as="geometry">
            <mxPoint x="80" y="-2" as="offset" />
          </mxGeometry>
        </mxCell>
        <mxCell id="zqkboVq3bq7hmdZX6oqV-94" value="data 2 sel." style="edgeLabel;html=1;align=center;verticalAlign=middle;resizable=0;points=[];fontSize=10;" vertex="1" connectable="0" parent="zqkboVq3bq7hmdZX6oqV-92">
          <mxGeometry x="0.3601" y="2" relative="1" as="geometry">
            <mxPoint x="87" y="3" as="offset" />
          </mxGeometry>
        </mxCell>
        <mxCell id="zqkboVq3bq7hmdZX6oqV-95" value="" style="triangle;whiteSpace=wrap;html=1;fillColor=#000000;" vertex="1" parent="1">
          <mxGeometry x="289" y="426" width="26" height="38" as="geometry" />
        </mxCell>
        <mxCell id="zqkboVq3bq7hmdZX6oqV-96" value="Rsrc (read)" style="text;html=1;strokeColor=none;fillColor=none;align=center;verticalAlign=middle;whiteSpace=wrap;rounded=0;" vertex="1" parent="1">
          <mxGeometry x="470" y="340" width="70" height="20" as="geometry" />
        </mxCell>
        <mxCell id="zqkboVq3bq7hmdZX6oqV-97" value="Rdst (read)" style="text;html=1;strokeColor=none;fillColor=none;align=center;verticalAlign=middle;whiteSpace=wrap;rounded=0;" vertex="1" parent="1">
          <mxGeometry x="470" y="370" width="70" height="20" as="geometry" />
        </mxCell>
        <mxCell id="zqkboVq3bq7hmdZX6oqV-98" value="inst" style="text;html=1;strokeColor=none;fillColor=none;align=center;verticalAlign=middle;whiteSpace=wrap;rounded=0;fontSize=10;" vertex="1" parent="1">
          <mxGeometry x="251" y="423" width="40" height="20" as="geometry" />
        </mxCell>
        <mxCell id="zqkboVq3bq7hmdZX6oqV-99" value="Rdst (write)&lt;br&gt;address" style="text;html=1;strokeColor=none;fillColor=none;align=center;verticalAlign=middle;whiteSpace=wrap;rounded=0;" vertex="1" parent="1">
          <mxGeometry x="470" y="417.5" width="70" height="20" as="geometry" />
        </mxCell>
        <mxCell id="zqkboVq3bq7hmdZX6oqV-100" value="data (write)" style="text;html=1;strokeColor=none;fillColor=none;align=center;verticalAlign=middle;whiteSpace=wrap;rounded=0;" vertex="1" parent="1">
          <mxGeometry x="470" y="470" width="70" height="20" as="geometry" />
        </mxCell>
        <mxCell id="zqkboVq3bq7hmdZX6oqV-101" value="R[Rsrc]" style="text;html=1;strokeColor=none;fillColor=none;align=center;verticalAlign=middle;whiteSpace=wrap;rounded=0;" vertex="1" parent="1">
          <mxGeometry x="589" y="339" width="38" height="20" as="geometry" />
        </mxCell>
        <mxCell id="zqkboVq3bq7hmdZX6oqV-102" value="IN-Port" style="edgeStyle=orthogonalEdgeStyle;rounded=0;orthogonalLoop=1;jettySize=auto;html=1;entryX=0;entryY=0.361;entryDx=0;entryDy=0;fontSize=9;exitX=0.5;exitY=0.5;exitDx=0;exitDy=0;exitPerimeter=0;entryPerimeter=0;" edge="1" parent="1" source="zqkboVq3bq7hmdZX6oqV-105" target="zqkboVq3bq7hmdZX6oqV-198">
          <mxGeometry x="-0.0498" relative="1" as="geometry">
            <Array as="points">
              <mxPoint x="410" y="1143" />
              <mxPoint x="410" y="657" />
            </Array>
            <mxPoint x="1" as="offset" />
          </mxGeometry>
        </mxCell>
        <mxCell id="zqkboVq3bq7hmdZX6oqV-103" value="&amp;nbsp;IN-Port&amp;nbsp;" style="edgeLabel;html=1;align=center;verticalAlign=middle;resizable=0;points=[];fontSize=10;" vertex="1" connectable="0" parent="zqkboVq3bq7hmdZX6oqV-102">
          <mxGeometry x="0.9231" y="2" relative="1" as="geometry">
            <mxPoint as="offset" />
          </mxGeometry>
        </mxCell>
        <mxCell id="zqkboVq3bq7hmdZX6oqV-104" value="IN-Port" style="edgeLabel;html=1;align=center;verticalAlign=middle;resizable=0;points=[];fontSize=18;" vertex="1" connectable="0" parent="zqkboVq3bq7hmdZX6oqV-102">
          <mxGeometry x="-0.9508" relative="1" as="geometry">
            <mxPoint x="-8" y="-18" as="offset" />
          </mxGeometry>
        </mxCell>
        <mxCell id="zqkboVq3bq7hmdZX6oqV-105" value="" style="shape=image;html=1;verticalAlign=top;verticalLabelPosition=bottom;labelBackgroundColor=#ffffff;imageAspect=0;aspect=fixed;image=https://cdn1.iconfinder.com/data/icons/feather-2/24/x-128.png;fontSize=9;" vertex="1" parent="1">
          <mxGeometry x="-580" y="1132" width="22" height="22" as="geometry" />
        </mxCell>
        <mxCell id="zqkboVq3bq7hmdZX6oqV-106" style="edgeStyle=orthogonalEdgeStyle;rounded=0;orthogonalLoop=1;jettySize=auto;html=1;exitX=0.5;exitY=1;exitDx=0;exitDy=0;fontSize=9;" edge="1" parent="1">
          <mxGeometry relative="1" as="geometry">
            <mxPoint x="420" y="482.5" as="sourcePoint" />
            <mxPoint x="420" y="482.5" as="targetPoint" />
          </mxGeometry>
        </mxCell>
        <mxCell id="zqkboVq3bq7hmdZX6oqV-107" value="Rdst(addr)" style="edgeStyle=orthogonalEdgeStyle;rounded=0;orthogonalLoop=1;jettySize=auto;html=1;" edge="1" parent="1" source="zqkboVq3bq7hmdZX6oqV-129">
          <mxGeometry x="0.5813" relative="1" as="geometry">
            <mxPoint x="304" y="424" as="sourcePoint" />
            <mxPoint x="740" y="800" as="targetPoint" />
            <Array as="points">
              <mxPoint x="328" y="424" />
              <mxPoint x="328" y="800" />
            </Array>
            <mxPoint as="offset" />
          </mxGeometry>
        </mxCell>
        <mxCell id="zqkboVq3bq7hmdZX6oqV-108" value="" style="shape=image;html=1;verticalAlign=top;verticalLabelPosition=bottom;labelBackgroundColor=#ffffff;imageAspect=0;aspect=fixed;image=https://cdn4.iconfinder.com/data/icons/essential-app-2/16/record-round-circle-dot-128.png;fontSize=9;" vertex="1" parent="1">
          <mxGeometry x="1339" y="567.44" width="6" height="6" as="geometry" />
        </mxCell>
        <mxCell id="zqkboVq3bq7hmdZX6oqV-109" style="edgeStyle=orthogonalEdgeStyle;rounded=0;orthogonalLoop=1;jettySize=auto;html=1;entryX=0;entryY=0.25;entryDx=0;entryDy=0;fontSize=9;strokeWidth=2;" edge="1" parent="1" source="zqkboVq3bq7hmdZX6oqV-110" target="zqkboVq3bq7hmdZX6oqV-28">
          <mxGeometry relative="1" as="geometry" />
        </mxCell>
        <mxCell id="zqkboVq3bq7hmdZX6oqV-110" value="&lt;font style=&quot;font-size: 15px&quot;&gt;Control Unit&lt;/font&gt;" style="ellipse;whiteSpace=wrap;html=1;fontSize=9;fillColor=#f5f5f5;strokeColor=#666666;fontColor=#333333;" vertex="1" parent="1">
          <mxGeometry x="379" y="-60.25" width="140" height="110" as="geometry" />
        </mxCell>
        <mxCell id="zqkboVq3bq7hmdZX6oqV-111" style="edgeStyle=orthogonalEdgeStyle;rounded=0;orthogonalLoop=1;jettySize=auto;html=1;exitX=1;exitY=0.5;exitDx=0;exitDy=0;entryX=-0.013;entryY=0.091;entryDx=0;entryDy=0;entryPerimeter=0;fontSize=10;" edge="1" parent="1" source="zqkboVq3bq7hmdZX6oqV-112" target="zqkboVq3bq7hmdZX6oqV-81">
          <mxGeometry relative="1" as="geometry">
            <Array as="points">
              <mxPoint x="950" y="446" />
              <mxPoint x="950" y="526" />
            </Array>
          </mxGeometry>
        </mxCell>
        <mxCell id="zqkboVq3bq7hmdZX6oqV-112" value="MUX&lt;br&gt;4x1" style="rounded=1;whiteSpace=wrap;html=1;" vertex="1" parent="1">
          <mxGeometry x="873" y="396" width="30" height="100" as="geometry" />
        </mxCell>
        <mxCell id="zqkboVq3bq7hmdZX6oqV-113" value="Sign Extend&lt;br style=&quot;font-size: 10px;&quot;&gt;(32-bits)" style="ellipse;whiteSpace=wrap;html=1;fontSize=10;" vertex="1" parent="1">
          <mxGeometry x="439" y="692" width="79" height="27" as="geometry" />
        </mxCell>
        <mxCell id="zqkboVq3bq7hmdZX6oqV-114" value="Zero Extend&lt;br style=&quot;font-size: 10px&quot;&gt;(32-bits)" style="ellipse;whiteSpace=wrap;html=1;fontSize=10;" vertex="1" parent="1">
          <mxGeometry x="493" y="667" width="70" height="29" as="geometry" />
        </mxCell>
        <mxCell id="zqkboVq3bq7hmdZX6oqV-115" style="edgeStyle=orthogonalEdgeStyle;rounded=0;orthogonalLoop=1;jettySize=auto;html=1;exitX=1;exitY=0.5;exitDx=0;exitDy=0;entryX=-0.009;entryY=0.911;entryDx=0;entryDy=0;entryPerimeter=0;fontSize=10;" edge="1" parent="1" source="zqkboVq3bq7hmdZX6oqV-116" target="zqkboVq3bq7hmdZX6oqV-81">
          <mxGeometry relative="1" as="geometry">
            <Array as="points">
              <mxPoint x="950" y="588" />
              <mxPoint x="950" y="669" />
            </Array>
          </mxGeometry>
        </mxCell>
        <mxCell id="zqkboVq3bq7hmdZX6oqV-116" value="MUX&lt;br&gt;4x1" style="rounded=1;whiteSpace=wrap;html=1;" vertex="1" parent="1">
          <mxGeometry x="873" y="537.5" width="30" height="100" as="geometry" />
        </mxCell>
        <mxCell id="zqkboVq3bq7hmdZX6oqV-117" value="&lt;span style=&quot;color: rgb(0, 0, 0); font-family: helvetica; font-style: normal; font-weight: 400; letter-spacing: normal; text-align: center; text-indent: 0px; text-transform: none; word-spacing: 0px; display: inline; float: none;&quot;&gt;&lt;font style=&quot;font-size: 9px&quot;&gt;Rdst data)&lt;/font&gt;&lt;/span&gt;" style="edgeStyle=orthogonalEdgeStyle;rounded=0;orthogonalLoop=1;jettySize=auto;html=1;entryX=-0.007;entryY=0.659;entryDx=0;entryDy=0;fontSize=9;entryPerimeter=0;labelBackgroundColor=#FFFFFF;" edge="1" parent="1">
          <mxGeometry x="0.0335" relative="1" as="geometry">
            <mxPoint x="785" y="789.5799999999999" as="sourcePoint" />
            <mxPoint x="1272.6849999999995" y="789.6687499999998" as="targetPoint" />
            <Array as="points">
              <mxPoint x="910" y="789.58" />
              <mxPoint x="910" y="789.58" />
            </Array>
            <mxPoint as="offset" />
          </mxGeometry>
        </mxCell>
        <mxCell id="zqkboVq3bq7hmdZX6oqV-118" value="PC+num" style="edgeStyle=orthogonalEdgeStyle;rounded=0;orthogonalLoop=1;jettySize=auto;html=1;exitX=0.5;exitY=0;exitDx=0;exitDy=0;fontSize=10;entryX=0;entryY=0.25;entryDx=0;entryDy=0;" edge="1" parent="1" source="zqkboVq3bq7hmdZX6oqV-119" target="zqkboVq3bq7hmdZX6oqV-204">
          <mxGeometry x="0.8558" relative="1" as="geometry">
            <Array as="points">
              <mxPoint x="70" y="318" />
              <mxPoint x="70" y="260" />
              <mxPoint x="-463" y="260" />
              <mxPoint x="-463" y="348" />
            </Array>
            <mxPoint as="offset" />
            <mxPoint x="-565" y="189" as="targetPoint" />
          </mxGeometry>
        </mxCell>
        <mxCell id="zqkboVq3bq7hmdZX6oqV-119" value="Adder&lt;br&gt;" style="verticalLabelPosition=bottom;verticalAlign=top;html=1;shape=trapezoid;perimeter=trapezoidPerimeter;whiteSpace=wrap;size=0.23;arcSize=10;flipV=1;direction=south;" vertex="1" parent="1">
          <mxGeometry y="284" width="50" height="68" as="geometry" />
        </mxCell>
        <mxCell id="zqkboVq3bq7hmdZX6oqV-120" value="" style="edgeStyle=orthogonalEdgeStyle;rounded=0;orthogonalLoop=1;jettySize=auto;html=1;entryX=0.75;entryY=1;entryDx=0;entryDy=0;" edge="1" parent="1" target="zqkboVq3bq7hmdZX6oqV-119">
          <mxGeometry relative="1" as="geometry">
            <mxPoint x="-20" y="445" as="sourcePoint" />
            <mxPoint x="-60" y="360" as="targetPoint" />
            <Array as="points">
              <mxPoint x="-20" y="335" />
            </Array>
          </mxGeometry>
        </mxCell>
        <mxCell id="zqkboVq3bq7hmdZX6oqV-121" value="" style="shape=image;html=1;verticalAlign=top;verticalLabelPosition=bottom;labelBackgroundColor=#ffffff;imageAspect=0;aspect=fixed;image=https://cdn4.iconfinder.com/data/icons/essential-app-2/16/record-round-circle-dot-128.png;fontSize=9;" vertex="1" parent="1">
          <mxGeometry x="-22" y="443" width="4" height="4" as="geometry" />
        </mxCell>
        <mxCell id="zqkboVq3bq7hmdZX6oqV-122" value="2" style="endArrow=classic;html=1;fontSize=10;entryX=0.25;entryY=1;entryDx=0;entryDy=0;edgeStyle=orthogonalEdgeStyle;" edge="1" parent="1">
          <mxGeometry x="-1" width="50" height="50" relative="1" as="geometry">
            <mxPoint x="-142" y="295" as="sourcePoint" />
            <mxPoint x="-114" y="295" as="targetPoint" />
            <Array as="points">
              <mxPoint x="-142" y="295" />
            </Array>
            <mxPoint as="offset" />
          </mxGeometry>
        </mxCell>
        <mxCell id="zqkboVq3bq7hmdZX6oqV-123" value="2" style="edgeStyle=orthogonalEdgeStyle;rounded=0;orthogonalLoop=1;jettySize=auto;html=1;exitX=0.75;exitY=1;exitDx=0;exitDy=0;fontSize=10;entryX=0.75;entryY=1;entryDx=0;entryDy=0;" edge="1" parent="1">
          <mxGeometry relative="1" as="geometry">
            <mxPoint x="1597" y="760" as="sourcePoint" />
            <mxPoint x="1557" y="760" as="targetPoint" />
          </mxGeometry>
        </mxCell>
        <mxCell id="zqkboVq3bq7hmdZX6oqV-124" value="Sp" style="edgeStyle=orthogonalEdgeStyle;rounded=0;orthogonalLoop=1;jettySize=auto;html=1;exitX=0.5;exitY=0;exitDx=0;exitDy=0;entryX=0.027;entryY=0.661;entryDx=0;entryDy=0;entryPerimeter=0;fontSize=10;" edge="1" parent="1" source="zqkboVq3bq7hmdZX6oqV-200" target="zqkboVq3bq7hmdZX6oqV-128">
          <mxGeometry x="0.7512" relative="1" as="geometry">
            <Array as="points">
              <mxPoint x="1437" y="700" />
              <mxPoint x="1336" y="700" />
              <mxPoint x="1336" y="402" />
            </Array>
            <mxPoint as="offset" />
          </mxGeometry>
        </mxCell>
        <mxCell id="zqkboVq3bq7hmdZX6oqV-125" style="edgeStyle=orthogonalEdgeStyle;rounded=0;orthogonalLoop=1;jettySize=auto;html=1;exitX=0.5;exitY=0;exitDx=0;exitDy=0;entryX=1;entryY=0.5;entryDx=0;entryDy=0;labelBackgroundColor=#FFFFFF;fontSize=8;endArrow=classic;endFill=1;strokeColor=#000000;strokeWidth=1;" edge="1" parent="1" source="zqkboVq3bq7hmdZX6oqV-126" target="zqkboVq3bq7hmdZX6oqV-200">
          <mxGeometry relative="1" as="geometry" />
        </mxCell>
        <mxCell id="zqkboVq3bq7hmdZX6oqV-126" value="" style="verticalLabelPosition=bottom;verticalAlign=top;html=1;shape=trapezoid;perimeter=trapezoidPerimeter;whiteSpace=wrap;size=0.23;arcSize=10;flipV=1;direction=south;rotation=-180;" vertex="1" parent="1">
          <mxGeometry x="1507" y="713" width="50" height="68" as="geometry" />
        </mxCell>
        <mxCell id="zqkboVq3bq7hmdZX6oqV-127" value="" style="edgeStyle=none;rounded=0;orthogonalLoop=1;jettySize=auto;html=1;fontSize=10;entryX=-0.003;entryY=0.154;entryDx=0;entryDy=0;entryPerimeter=0;" edge="1" parent="1" source="zqkboVq3bq7hmdZX6oqV-128" target="zqkboVq3bq7hmdZX6oqV-42">
          <mxGeometry relative="1" as="geometry" />
        </mxCell>
        <mxCell id="zqkboVq3bq7hmdZX6oqV-128" value="MUX&lt;br style=&quot;font-size: 9px&quot;&gt;2x1" style="rounded=1;whiteSpace=wrap;html=1;fontSize=9;" vertex="1" parent="1">
          <mxGeometry x="1422" y="372" width="20" height="45" as="geometry" />
        </mxCell>
        <mxCell id="zqkboVq3bq7hmdZX6oqV-129" value="" style="shape=image;html=1;verticalAlign=top;verticalLabelPosition=bottom;labelBackgroundColor=#ffffff;imageAspect=0;aspect=fixed;image=https://cdn4.iconfinder.com/data/icons/essential-app-2/16/record-round-circle-dot-128.png;fontSize=9;" vertex="1" parent="1">
          <mxGeometry x="306" y="421" width="6" height="6" as="geometry" />
        </mxCell>
        <mxCell id="zqkboVq3bq7hmdZX6oqV-130" value="R[Rdst]" style="edgeStyle=orthogonalEdgeStyle;rounded=0;orthogonalLoop=1;jettySize=auto;html=1;fontSize=10;entryX=0;entryY=0.75;entryDx=0;entryDy=0;" edge="1" parent="1" target="zqkboVq3bq7hmdZX6oqV-204">
          <mxGeometry x="0.9196" relative="1" as="geometry">
            <mxPoint x="400" y="730" as="targetPoint" />
            <Array as="points">
              <mxPoint x="949" y="725" />
              <mxPoint x="799" y="725" />
              <mxPoint x="799" y="1100" />
              <mxPoint x="-468" y="1100" />
              <mxPoint x="-468" y="398" />
            </Array>
            <mxPoint as="offset" />
            <mxPoint x="948.9999999999991" y="667.0000000000005" as="sourcePoint" />
          </mxGeometry>
        </mxCell>
        <mxCell id="zqkboVq3bq7hmdZX6oqV-131" value="" style="shape=image;html=1;verticalAlign=top;verticalLabelPosition=bottom;labelBackgroundColor=#ffffff;imageAspect=0;aspect=fixed;image=https://cdn4.iconfinder.com/data/icons/essential-app-2/16/record-round-circle-dot-128.png;fontSize=9;" vertex="1" parent="1">
          <mxGeometry x="946" y="665" width="6" height="6" as="geometry" />
        </mxCell>
        <mxCell id="zqkboVq3bq7hmdZX6oqV-132" value="poped&lt;br&gt;PC" style="edgeStyle=orthogonalEdgeStyle;rounded=0;orthogonalLoop=1;jettySize=auto;html=1;fontSize=10;entryX=0.033;entryY=0.656;entryDx=0;entryDy=0;entryPerimeter=0;" edge="1" parent="1" source="zqkboVq3bq7hmdZX6oqV-133" target="zqkboVq3bq7hmdZX6oqV-208">
          <mxGeometry x="0.9243" relative="1" as="geometry">
            <mxPoint x="-300" y="440" as="targetPoint" />
            <Array as="points">
              <mxPoint x="1724" y="1080" />
              <mxPoint x="-297" y="1080" />
              <mxPoint x="-297" y="439" />
            </Array>
            <mxPoint as="offset" />
          </mxGeometry>
        </mxCell>
        <mxCell id="zqkboVq3bq7hmdZX6oqV-133" value="" style="shape=image;html=1;verticalAlign=top;verticalLabelPosition=bottom;labelBackgroundColor=#ffffff;imageAspect=0;aspect=fixed;image=https://cdn4.iconfinder.com/data/icons/essential-app-2/16/record-round-circle-dot-128.png;fontSize=9;" vertex="1" parent="1">
          <mxGeometry x="1720" y="406.5" width="7.5" height="7.5" as="geometry" />
        </mxCell>
        <mxCell id="zqkboVq3bq7hmdZX6oqV-134" style="edgeStyle=orthogonalEdgeStyle;rounded=0;orthogonalLoop=1;jettySize=auto;html=1;entryX=0.5;entryY=0;entryDx=0;entryDy=0;fontSize=10;" edge="1" parent="1">
          <mxGeometry relative="1" as="geometry">
            <mxPoint x="1218" y="1150" as="targetPoint" />
            <mxPoint x="948" y="725" as="sourcePoint" />
            <Array as="points">
              <mxPoint x="948" y="725" />
              <mxPoint x="970" y="725" />
              <mxPoint x="970" y="834" />
              <mxPoint x="1218" y="834" />
            </Array>
          </mxGeometry>
        </mxCell>
        <mxCell id="zqkboVq3bq7hmdZX6oqV-135" value="R[Rdst]" style="edgeStyle=orthogonalEdgeStyle;rounded=0;orthogonalLoop=1;jettySize=auto;html=1;entryX=0;entryY=0.75;entryDx=0;entryDy=0;fontSize=10;endArrow=classic;endFill=1;strokeColor=#000000;strokeWidth=1;exitX=0.5;exitY=0;exitDx=0;exitDy=0;" edge="1" parent="1" source="zqkboVq3bq7hmdZX6oqV-179" target="zqkboVq3bq7hmdZX6oqV-166">
          <mxGeometry x="0.7281" relative="1" as="geometry">
            <Array as="points">
              <mxPoint x="974" y="393" />
            </Array>
            <mxPoint as="offset" />
          </mxGeometry>
        </mxCell>
        <mxCell id="zqkboVq3bq7hmdZX6oqV-136" value="Output port" style="rounded=1;whiteSpace=wrap;html=1;fontSize=10;fillColor=#C9C9C9;" vertex="1" parent="1">
          <mxGeometry x="1184" y="1150" width="72" height="20" as="geometry" />
        </mxCell>
        <mxCell id="zqkboVq3bq7hmdZX6oqV-137" value="ALU output" style="edgeStyle=orthogonalEdgeStyle;rounded=0;orthogonalLoop=1;jettySize=auto;html=1;fontSize=9;entryX=-0.006;entryY=0.482;entryDx=0;entryDy=0;entryPerimeter=0;" edge="1" parent="1" source="zqkboVq3bq7hmdZX6oqV-138" target="zqkboVq3bq7hmdZX6oqV-112">
          <mxGeometry x="-0.7484" y="76" relative="1" as="geometry">
            <mxPoint x="867" y="444" as="targetPoint" />
            <Array as="points">
              <mxPoint x="1342" y="890" />
              <mxPoint x="847" y="890" />
              <mxPoint x="847" y="444" />
            </Array>
            <mxPoint as="offset" />
          </mxGeometry>
        </mxCell>
        <mxCell id="zqkboVq3bq7hmdZX6oqV-138" value="" style="shape=image;html=1;verticalAlign=top;verticalLabelPosition=bottom;labelBackgroundColor=#ffffff;imageAspect=0;aspect=fixed;image=https://cdn4.iconfinder.com/data/icons/essential-app-2/16/record-round-circle-dot-128.png;fontSize=9;" vertex="1" parent="1">
          <mxGeometry x="1339" y="380" width="6" height="6" as="geometry" />
        </mxCell>
        <mxCell id="zqkboVq3bq7hmdZX6oqV-139" style="edgeStyle=orthogonalEdgeStyle;rounded=0;orthogonalLoop=1;jettySize=auto;html=1;exitX=1;exitY=0.5;exitDx=0;exitDy=0;entryX=-0.01;entryY=0.502;entryDx=0;entryDy=0;entryPerimeter=0;fontSize=10;" edge="1" parent="1" source="zqkboVq3bq7hmdZX6oqV-140" target="zqkboVq3bq7hmdZX6oqV-116">
          <mxGeometry relative="1" as="geometry">
            <mxPoint x="866.46" y="588.2999999999997" as="targetPoint" />
          </mxGeometry>
        </mxCell>
        <mxCell id="zqkboVq3bq7hmdZX6oqV-140" value="" style="shape=image;html=1;verticalAlign=top;verticalLabelPosition=bottom;labelBackgroundColor=#ffffff;imageAspect=0;aspect=fixed;image=https://cdn4.iconfinder.com/data/icons/essential-app-2/16/record-round-circle-dot-128.png;fontSize=9;" vertex="1" parent="1">
          <mxGeometry x="844" y="584.88" width="6" height="6" as="geometry" />
        </mxCell>
        <mxCell id="zqkboVq3bq7hmdZX6oqV-141" style="edgeStyle=orthogonalEdgeStyle;rounded=0;orthogonalLoop=1;jettySize=auto;html=1;exitX=0.5;exitY=0;exitDx=0;exitDy=0;entryX=0;entryY=0.75;entryDx=0;entryDy=0;fontSize=10;" edge="1" parent="1" source="zqkboVq3bq7hmdZX6oqV-142" target="zqkboVq3bq7hmdZX6oqV-112">
          <mxGeometry relative="1" as="geometry" />
        </mxCell>
        <mxCell id="zqkboVq3bq7hmdZX6oqV-142" value="" style="shape=image;html=1;verticalAlign=top;verticalLabelPosition=bottom;labelBackgroundColor=#ffffff;imageAspect=0;aspect=fixed;image=https://cdn4.iconfinder.com/data/icons/essential-app-2/16/record-round-circle-dot-128.png;fontSize=9;" vertex="1" parent="1">
          <mxGeometry x="831" y="907" width="6" height="6" as="geometry" />
        </mxCell>
        <mxCell id="zqkboVq3bq7hmdZX6oqV-143" style="edgeStyle=orthogonalEdgeStyle;rounded=0;orthogonalLoop=1;jettySize=auto;html=1;exitX=1;exitY=0.5;exitDx=0;exitDy=0;entryX=0;entryY=0.75;entryDx=0;entryDy=0;fontSize=10;" edge="1" parent="1" source="zqkboVq3bq7hmdZX6oqV-144" target="zqkboVq3bq7hmdZX6oqV-116">
          <mxGeometry relative="1" as="geometry" />
        </mxCell>
        <mxCell id="zqkboVq3bq7hmdZX6oqV-144" value="" style="shape=image;html=1;verticalAlign=top;verticalLabelPosition=bottom;labelBackgroundColor=#ffffff;imageAspect=0;aspect=fixed;image=https://cdn4.iconfinder.com/data/icons/essential-app-2/16/record-round-circle-dot-128.png;fontSize=9;" vertex="1" parent="1">
          <mxGeometry x="831" y="610" width="6" height="6" as="geometry" />
        </mxCell>
        <mxCell id="zqkboVq3bq7hmdZX6oqV-145" value="CCR" style="rounded=1;whiteSpace=wrap;html=1;fontSize=10;" vertex="1" parent="1">
          <mxGeometry x="1050" y="213.75" width="120" height="60" as="geometry" />
        </mxCell>
        <mxCell id="zqkboVq3bq7hmdZX6oqV-146" value="&lt;font style=&quot;font-size: 7px&quot;&gt;1(JMP)&lt;/font&gt;" style="edgeStyle=orthogonalEdgeStyle;rounded=0;orthogonalLoop=1;jettySize=auto;html=1;fontSize=10;strokeWidth=1;entryX=0.25;entryY=1;entryDx=0;entryDy=0;" edge="1" parent="1">
          <mxGeometry x="-0.9753" relative="1" as="geometry">
            <mxPoint x="907.5" y="240" as="targetPoint" />
            <mxPoint x="908" y="280" as="sourcePoint" />
            <Array as="points">
              <mxPoint x="908" y="280" />
            </Array>
            <mxPoint as="offset" />
          </mxGeometry>
        </mxCell>
        <mxCell id="zqkboVq3bq7hmdZX6oqV-147" style="edgeStyle=orthogonalEdgeStyle;rounded=0;orthogonalLoop=1;jettySize=auto;html=1;fontSize=10;strokeWidth=1;entryX=0.409;entryY=0.986;entryDx=0;entryDy=0;entryPerimeter=0;" edge="1" parent="1">
          <mxGeometry relative="1" as="geometry">
            <mxPoint x="929.9899999999998" y="239.63250000000016" as="targetPoint" />
            <mxPoint x="930" y="320" as="sourcePoint" />
            <Array as="points">
              <mxPoint x="930" y="320" />
            </Array>
          </mxGeometry>
        </mxCell>
        <mxCell id="zqkboVq3bq7hmdZX6oqV-148" value="N" style="edgeStyle=orthogonalEdgeStyle;rounded=0;orthogonalLoop=1;jettySize=auto;html=1;exitX=0.682;exitY=1.023;exitDx=0;exitDy=0;fontSize=10;strokeWidth=1;exitPerimeter=0;entryX=0.682;entryY=1.023;entryDx=0;entryDy=0;entryPerimeter=0;" edge="1" parent="1">
          <mxGeometry relative="1" as="geometry">
            <mxPoint x="953.0199999999995" y="240.60375000000022" as="targetPoint" />
            <mxPoint x="953" y="320" as="sourcePoint" />
            <Array as="points">
              <mxPoint x="953" y="281" />
              <mxPoint x="953" y="281" />
            </Array>
          </mxGeometry>
        </mxCell>
        <mxCell id="zqkboVq3bq7hmdZX6oqV-149" style="edgeStyle=orthogonalEdgeStyle;rounded=0;orthogonalLoop=1;jettySize=auto;html=1;exitX=0.25;exitY=0;exitDx=0;exitDy=0;entryX=0;entryY=0.75;entryDx=0;entryDy=0;entryPerimeter=0;fontSize=10;endArrow=none;endFill=0;strokeColor=#000000;strokeWidth=1;" edge="1" parent="1" source="zqkboVq3bq7hmdZX6oqV-150" target="zqkboVq3bq7hmdZX6oqV-162">
          <mxGeometry relative="1" as="geometry">
            <Array as="points">
              <mxPoint x="912" y="164" />
            </Array>
          </mxGeometry>
        </mxCell>
        <mxCell id="zqkboVq3bq7hmdZX6oqV-150" value="MUX&lt;br&gt;4x1" style="rounded=1;whiteSpace=wrap;html=1;" vertex="1" parent="1">
          <mxGeometry x="885" y="213.75" width="110" height="26.25" as="geometry" />
        </mxCell>
        <mxCell id="zqkboVq3bq7hmdZX6oqV-151" value="" style="endArrow=none;html=1;fontSize=10;entryX=0;entryY=0.604;entryDx=0;entryDy=0;entryPerimeter=0;strokeWidth=2;" edge="1" parent="1" target="zqkboVq3bq7hmdZX6oqV-145">
          <mxGeometry width="50" height="50" relative="1" as="geometry">
            <mxPoint x="930" y="320" as="sourcePoint" />
            <mxPoint x="1010" y="270" as="targetPoint" />
            <Array as="points">
              <mxPoint x="1020" y="320" />
              <mxPoint x="1020" y="250" />
            </Array>
          </mxGeometry>
        </mxCell>
        <mxCell id="zqkboVq3bq7hmdZX6oqV-152" value="Z" style="edgeStyle=orthogonalEdgeStyle;rounded=0;orthogonalLoop=1;jettySize=auto;html=1;exitX=0.682;exitY=1.023;exitDx=0;exitDy=0;fontSize=10;strokeWidth=1;exitPerimeter=0;entryX=0.682;entryY=1.023;entryDx=0;entryDy=0;entryPerimeter=0;" edge="1" parent="1">
          <mxGeometry relative="1" as="geometry">
            <mxPoint x="975.0200000000004" y="240.00374999999985" as="targetPoint" />
            <mxPoint x="975" y="319.40000000000055" as="sourcePoint" />
            <Array as="points">
              <mxPoint x="975" y="280.4" />
              <mxPoint x="975" y="280.4" />
            </Array>
          </mxGeometry>
        </mxCell>
        <mxCell id="zqkboVq3bq7hmdZX6oqV-153" value="C" style="edgeStyle=orthogonalEdgeStyle;rounded=0;orthogonalLoop=1;jettySize=auto;html=1;fontSize=10;strokeWidth=1;entryX=0.409;entryY=0.986;entryDx=0;entryDy=0;entryPerimeter=0;" edge="1" parent="1">
          <mxGeometry relative="1" as="geometry">
            <mxPoint x="929.9899999999998" y="240.0025000000005" as="targetPoint" />
            <mxPoint x="930" y="320.37000000000035" as="sourcePoint" />
            <Array as="points">
              <mxPoint x="930" y="320.37" />
            </Array>
          </mxGeometry>
        </mxCell>
        <mxCell id="zqkboVq3bq7hmdZX6oqV-154" style="edgeStyle=none;rounded=0;orthogonalLoop=1;jettySize=auto;html=1;exitX=1;exitY=0.5;exitDx=0;exitDy=0;exitPerimeter=0;entryX=0.373;entryY=-0.012;entryDx=0;entryDy=0;entryPerimeter=0;fontSize=10;endArrow=classic;endFill=1;strokeColor=#000000;strokeWidth=1;" edge="1" parent="1" source="zqkboVq3bq7hmdZX6oqV-155" target="zqkboVq3bq7hmdZX6oqV-158">
          <mxGeometry relative="1" as="geometry" />
        </mxCell>
        <mxCell id="zqkboVq3bq7hmdZX6oqV-155" value="" style="verticalLabelPosition=bottom;shadow=0;dashed=0;align=center;html=1;verticalAlign=top;shape=mxgraph.electrical.logic_gates.logic_gate;operation=or;fontSize=10;rotation=90;fillColor=#e1d5e7;strokeColor=#9673a6;" vertex="1" parent="1">
          <mxGeometry x="1110" y="120" width="50" height="20" as="geometry" />
        </mxCell>
        <mxCell id="zqkboVq3bq7hmdZX6oqV-156" value="c flag" style="endArrow=classic;html=1;fontSize=10;strokeColor=#000000;strokeWidth=1;entryX=0.75;entryY=0;entryDx=0;entryDy=0;" edge="1" parent="1" target="zqkboVq3bq7hmdZX6oqV-158">
          <mxGeometry x="0.225" width="50" height="50" relative="1" as="geometry">
            <mxPoint x="1120" y="320" as="sourcePoint" />
            <mxPoint x="1200" y="190" as="targetPoint" />
            <Array as="points">
              <mxPoint x="1200" y="320" />
              <mxPoint x="1200" y="240" />
              <mxPoint x="1200" y="170" />
              <mxPoint x="1200" y="150" />
              <mxPoint x="1150" y="150" />
            </Array>
            <mxPoint as="offset" />
          </mxGeometry>
        </mxCell>
        <mxCell id="zqkboVq3bq7hmdZX6oqV-157" style="edgeStyle=none;rounded=0;orthogonalLoop=1;jettySize=auto;html=1;exitX=0.5;exitY=1;exitDx=0;exitDy=0;entryX=0.75;entryY=0;entryDx=0;entryDy=0;fontSize=10;endArrow=classic;endFill=1;strokeColor=#000000;strokeWidth=1;" edge="1" parent="1" source="zqkboVq3bq7hmdZX6oqV-158" target="zqkboVq3bq7hmdZX6oqV-145">
          <mxGeometry relative="1" as="geometry" />
        </mxCell>
        <mxCell id="zqkboVq3bq7hmdZX6oqV-158" value="MUX&lt;br&gt;2x1" style="rounded=1;whiteSpace=wrap;html=1;" vertex="1" parent="1">
          <mxGeometry x="1120" y="170" width="40" height="26.25" as="geometry" />
        </mxCell>
        <mxCell id="zqkboVq3bq7hmdZX6oqV-159" value="c flag (in)" style="text;html=1;strokeColor=none;fillColor=none;align=center;verticalAlign=middle;whiteSpace=wrap;rounded=0;fontSize=10;" vertex="1" parent="1">
          <mxGeometry x="1110" y="214" width="50" height="11" as="geometry" />
        </mxCell>
        <mxCell id="zqkboVq3bq7hmdZX6oqV-160" value="z&amp;amp;n flags (in)" style="text;html=1;strokeColor=none;fillColor=none;align=center;verticalAlign=middle;whiteSpace=wrap;rounded=0;fontSize=10;" vertex="1" parent="1">
          <mxGeometry x="1093" y="262.75" width="65" height="11" as="geometry" />
        </mxCell>
        <mxCell id="zqkboVq3bq7hmdZX6oqV-161" value="br-taken" style="edgeStyle=orthogonalEdgeStyle;rounded=0;orthogonalLoop=1;jettySize=auto;html=1;exitX=1;exitY=0.5;exitDx=0;exitDy=0;exitPerimeter=0;fontSize=10;endArrow=classic;endFill=1;strokeColor=#6c8ebf;strokeWidth=1;fillColor=#dae8fc;" edge="1" parent="1" source="zqkboVq3bq7hmdZX6oqV-162">
          <mxGeometry x="0.0086" relative="1" as="geometry">
            <mxPoint as="offset" />
            <mxPoint x="1070" y="214" as="targetPoint" />
            <Array as="points">
              <mxPoint x="1070" y="160" />
              <mxPoint x="1070" y="214" />
            </Array>
          </mxGeometry>
        </mxCell>
        <mxCell id="zqkboVq3bq7hmdZX6oqV-162" value="" style="verticalLabelPosition=bottom;shadow=0;dashed=0;align=center;html=1;verticalAlign=top;shape=mxgraph.electrical.logic_gates.logic_gate;operation=and;fontSize=10;fillColor=#e1d5e7;strokeColor=#9673a6;" vertex="1" parent="1">
          <mxGeometry x="921.75" y="150" width="36.5" height="19" as="geometry" />
        </mxCell>
        <mxCell id="zqkboVq3bq7hmdZX6oqV-163" style="edgeStyle=orthogonalEdgeStyle;rounded=0;orthogonalLoop=1;jettySize=auto;html=1;entryX=0.176;entryY=0.991;entryDx=0;entryDy=0;entryPerimeter=0;fontSize=10;endArrow=classic;endFill=1;strokeColor=#6c8ebf;strokeWidth=1;fillColor=#dae8fc;" edge="1" parent="1" source="zqkboVq3bq7hmdZX6oqV-164" target="zqkboVq3bq7hmdZX6oqV-145">
          <mxGeometry relative="1" as="geometry">
            <Array as="points">
              <mxPoint x="808" y="227" />
              <mxPoint x="808" y="334" />
              <mxPoint x="1071" y="334" />
            </Array>
          </mxGeometry>
        </mxCell>
        <mxCell id="zqkboVq3bq7hmdZX6oqV-164" value="" style="shape=image;html=1;verticalAlign=top;verticalLabelPosition=bottom;labelBackgroundColor=#ffffff;imageAspect=0;aspect=fixed;image=https://cdn4.iconfinder.com/data/icons/essential-app-2/16/record-round-circle-dot-128.png;fontSize=9;imageBackground=#ffffff;" vertex="1" parent="1">
          <mxGeometry x="805" y="223.88" width="6" height="6" as="geometry" />
        </mxCell>
        <mxCell id="zqkboVq3bq7hmdZX6oqV-165" value="PC" style="edgeStyle=orthogonalEdgeStyle;rounded=0;orthogonalLoop=1;jettySize=auto;html=1;exitX=1;exitY=0.5;exitDx=0;exitDy=0;entryX=-0.006;entryY=0.421;entryDx=0;entryDy=0;entryPerimeter=0;fontSize=10;endArrow=classic;endFill=1;strokeColor=#000000;strokeWidth=1;" edge="1" parent="1" source="zqkboVq3bq7hmdZX6oqV-166" target="zqkboVq3bq7hmdZX6oqV-40">
          <mxGeometry x="-0.5225" y="-1" relative="1" as="geometry">
            <mxPoint as="offset" />
          </mxGeometry>
        </mxCell>
        <mxCell id="zqkboVq3bq7hmdZX6oqV-166" value="MUX&lt;br style=&quot;font-size: 9px&quot;&gt;2x1" style="rounded=1;whiteSpace=wrap;html=1;fontSize=9;" vertex="1" parent="1">
          <mxGeometry x="1117" y="359" width="28" height="45" as="geometry" />
        </mxCell>
        <mxCell id="zqkboVq3bq7hmdZX6oqV-167" value="PC after branch &lt;br&gt;(R[Rdst])" style="edgeStyle=orthogonalEdgeStyle;rounded=0;orthogonalLoop=1;jettySize=auto;html=1;fontSize=10;endArrow=classic;endFill=1;strokeColor=#000000;strokeWidth=1;entryX=0.053;entryY=0.692;entryDx=0;entryDy=0;entryPerimeter=0;" edge="1" parent="1" target="zqkboVq3bq7hmdZX6oqV-206">
          <mxGeometry x="0.9203" relative="1" as="geometry">
            <mxPoint x="-300" y="410" as="targetPoint" />
            <Array as="points">
              <mxPoint x="1331" y="1090" />
              <mxPoint x="-378" y="1090" />
              <mxPoint x="-378" y="417" />
            </Array>
            <mxPoint as="offset" />
            <mxPoint x="1331" y="508" as="sourcePoint" />
          </mxGeometry>
        </mxCell>
        <mxCell id="zqkboVq3bq7hmdZX6oqV-168" value="" style="shape=image;html=1;verticalAlign=top;verticalLabelPosition=bottom;labelBackgroundColor=#ffffff;imageAspect=0;aspect=fixed;image=https://cdn4.iconfinder.com/data/icons/essential-app-2/16/record-round-circle-dot-128.png;fontSize=9;" vertex="1" parent="1">
          <mxGeometry x="1327" y="502" width="8" height="8" as="geometry" />
        </mxCell>
        <mxCell id="zqkboVq3bq7hmdZX6oqV-169" style="edgeStyle=orthogonalEdgeStyle;rounded=0;orthogonalLoop=1;jettySize=auto;html=1;exitX=0.5;exitY=1;exitDx=0;exitDy=0;entryX=0.5;entryY=0;entryDx=0;entryDy=0;fontSize=10;endArrow=classic;endFill=1;strokeColor=#6c8ebf;strokeWidth=1;fillColor=#dae8fc;" edge="1" parent="1" source="zqkboVq3bq7hmdZX6oqV-172" target="zqkboVq3bq7hmdZX6oqV-166">
          <mxGeometry relative="1" as="geometry">
            <Array as="points">
              <mxPoint x="1002" y="343" />
              <mxPoint x="1131" y="343" />
            </Array>
          </mxGeometry>
        </mxCell>
        <mxCell id="zqkboVq3bq7hmdZX6oqV-170" style="edgeStyle=orthogonalEdgeStyle;rounded=0;orthogonalLoop=1;jettySize=auto;html=1;exitX=0.5;exitY=0;exitDx=0;exitDy=0;entryX=0;entryY=0.75;entryDx=0;entryDy=0;fillColor=#dae8fc;strokeColor=#6c8ebf;" edge="1" parent="1" source="zqkboVq3bq7hmdZX6oqV-172" target="zqkboVq3bq7hmdZX6oqV-251">
          <mxGeometry relative="1" as="geometry" />
        </mxCell>
        <mxCell id="zqkboVq3bq7hmdZX6oqV-171" value="br-taken" style="edgeLabel;html=1;align=center;verticalAlign=middle;resizable=0;points=[];" vertex="1" connectable="0" parent="zqkboVq3bq7hmdZX6oqV-170">
          <mxGeometry x="0.6954" y="1" relative="1" as="geometry">
            <mxPoint x="-53" y="-1" as="offset" />
          </mxGeometry>
        </mxCell>
        <mxCell id="zqkboVq3bq7hmdZX6oqV-172" value="" style="shape=image;html=1;verticalAlign=top;verticalLabelPosition=bottom;labelBackgroundColor=#ffffff;imageAspect=0;aspect=fixed;image=https://cdn4.iconfinder.com/data/icons/essential-app-2/16/record-round-circle-dot-128.png;fontSize=9;imageBackground=#ffffff;" vertex="1" parent="1">
          <mxGeometry x="999" y="156.5" width="6" height="6" as="geometry" />
        </mxCell>
        <mxCell id="zqkboVq3bq7hmdZX6oqV-173" value="Address" style="text;html=1;strokeColor=none;fillColor=none;align=center;verticalAlign=middle;whiteSpace=wrap;rounded=0;" vertex="1" parent="1">
          <mxGeometry x="1471" y="384.5" width="48" height="20" as="geometry" />
        </mxCell>
        <mxCell id="zqkboVq3bq7hmdZX6oqV-174" value="Data" style="text;html=1;strokeColor=none;fillColor=none;align=center;verticalAlign=middle;whiteSpace=wrap;rounded=0;" vertex="1" parent="1">
          <mxGeometry x="1470" y="500.5" width="40" height="20" as="geometry" />
        </mxCell>
        <mxCell id="zqkboVq3bq7hmdZX6oqV-175" value="" style="edgeStyle=orthogonalEdgeStyle;rounded=0;orthogonalLoop=1;jettySize=auto;html=1;shadow=0;fontSize=8;" edge="1" parent="1" source="zqkboVq3bq7hmdZX6oqV-177" target="zqkboVq3bq7hmdZX6oqV-174">
          <mxGeometry relative="1" as="geometry" />
        </mxCell>
        <mxCell id="zqkboVq3bq7hmdZX6oqV-176" value="PC" style="edgeStyle=orthogonalEdgeStyle;rounded=0;orthogonalLoop=1;jettySize=auto;html=1;exitX=1.007;exitY=0.565;exitDx=0;exitDy=0;entryX=0.75;entryY=1;entryDx=0;entryDy=0;shadow=0;fontSize=8;exitPerimeter=0;" edge="1" parent="1" source="zqkboVq3bq7hmdZX6oqV-40" target="zqkboVq3bq7hmdZX6oqV-192">
          <mxGeometry x="0.1475" relative="1" as="geometry">
            <Array as="points" />
            <mxPoint as="offset" />
          </mxGeometry>
        </mxCell>
        <mxCell id="zqkboVq3bq7hmdZX6oqV-177" value="MUX&lt;br style=&quot;font-size: 9px&quot;&gt;2x1" style="rounded=1;whiteSpace=wrap;html=1;fontSize=9;" vertex="1" parent="1">
          <mxGeometry x="1422" y="488" width="20" height="45" as="geometry" />
        </mxCell>
        <mxCell id="zqkboVq3bq7hmdZX6oqV-178" value="flags (out)" style="text;html=1;strokeColor=none;fillColor=none;align=center;verticalAlign=middle;whiteSpace=wrap;rounded=0;fontSize=10;" vertex="1" parent="1">
          <mxGeometry x="1050" y="245" width="50" height="11" as="geometry" />
        </mxCell>
        <mxCell id="zqkboVq3bq7hmdZX6oqV-179" value="" style="shape=image;html=1;verticalAlign=top;verticalLabelPosition=bottom;labelBackgroundColor=#ffffff;imageAspect=0;aspect=fixed;image=https://cdn4.iconfinder.com/data/icons/essential-app-2/16/record-round-circle-dot-128.png;fontSize=9;" vertex="1" parent="1">
          <mxGeometry x="970" y="522" width="8" height="8" as="geometry" />
        </mxCell>
        <mxCell id="zqkboVq3bq7hmdZX6oqV-180" style="edgeStyle=orthogonalEdgeStyle;rounded=0;orthogonalLoop=1;jettySize=auto;html=1;exitX=1;exitY=0.5;exitDx=0;exitDy=0;exitPerimeter=0;entryX=0;entryY=0.5;entryDx=0;entryDy=0;fontSize=12;fillColor=#dae8fc;strokeColor=#6c8ebf;" edge="1" parent="1" source="zqkboVq3bq7hmdZX6oqV-181" target="zqkboVq3bq7hmdZX6oqV-158">
          <mxGeometry relative="1" as="geometry">
            <Array as="points">
              <mxPoint x="1100" y="120" />
              <mxPoint x="1100" y="183" />
            </Array>
          </mxGeometry>
        </mxCell>
        <mxCell id="zqkboVq3bq7hmdZX6oqV-181" value="" style="verticalLabelPosition=bottom;shadow=0;dashed=0;align=center;html=1;verticalAlign=top;shape=mxgraph.electrical.logic_gates.logic_gate;operation=or;fontSize=10;rotation=0;fillColor=#e1d5e7;strokeColor=#9673a6;" vertex="1" parent="1">
          <mxGeometry x="1040" y="110" width="50" height="20" as="geometry" />
        </mxCell>
        <mxCell id="zqkboVq3bq7hmdZX6oqV-182" style="edgeStyle=orthogonalEdgeStyle;rounded=0;orthogonalLoop=1;jettySize=auto;html=1;exitX=0.5;exitY=1;exitDx=0;exitDy=0;entryX=0;entryY=0.25;entryDx=0;entryDy=0;entryPerimeter=0;fontSize=12;fillColor=#dae8fc;strokeColor=#6c8ebf;endArrow=none;endFill=0;" edge="1" parent="1" source="zqkboVq3bq7hmdZX6oqV-183" target="zqkboVq3bq7hmdZX6oqV-181">
          <mxGeometry relative="1" as="geometry">
            <Array as="points">
              <mxPoint x="1026" y="115" />
            </Array>
          </mxGeometry>
        </mxCell>
        <mxCell id="zqkboVq3bq7hmdZX6oqV-183" value="" style="shape=image;html=1;verticalAlign=top;verticalLabelPosition=bottom;labelBackgroundColor=#ffffff;imageAspect=0;aspect=fixed;image=https://cdn4.iconfinder.com/data/icons/essential-app-2/16/record-round-circle-dot-128.png;fontSize=9;imageBackground=#ffffff;" vertex="1" parent="1">
          <mxGeometry x="1023" y="82" width="6" height="6" as="geometry" />
        </mxCell>
        <mxCell id="zqkboVq3bq7hmdZX6oqV-184" style="edgeStyle=orthogonalEdgeStyle;rounded=0;orthogonalLoop=1;jettySize=auto;html=1;exitX=0.5;exitY=1;exitDx=0;exitDy=0;entryX=0;entryY=0.75;entryDx=0;entryDy=0;entryPerimeter=0;fontSize=12;fillColor=#dae8fc;strokeColor=#6c8ebf;endArrow=none;endFill=0;" edge="1" parent="1" source="zqkboVq3bq7hmdZX6oqV-185" target="zqkboVq3bq7hmdZX6oqV-181">
          <mxGeometry relative="1" as="geometry">
            <Array as="points">
              <mxPoint x="1013" y="125" />
            </Array>
          </mxGeometry>
        </mxCell>
        <mxCell id="zqkboVq3bq7hmdZX6oqV-185" value="" style="shape=image;html=1;verticalAlign=top;verticalLabelPosition=bottom;labelBackgroundColor=#ffffff;imageAspect=0;aspect=fixed;image=https://cdn4.iconfinder.com/data/icons/essential-app-2/16/record-round-circle-dot-128.png;fontSize=9;imageBackground=#ffffff;" vertex="1" parent="1">
          <mxGeometry x="1010" y="91" width="6" height="6" as="geometry" />
        </mxCell>
        <mxCell id="zqkboVq3bq7hmdZX6oqV-186" value="Forward2" style="edgeStyle=orthogonalEdgeStyle;rounded=0;orthogonalLoop=1;jettySize=auto;html=1;exitX=0.25;exitY=0;exitDx=0;exitDy=0;fontSize=9;endArrow=classic;endFill=1;strokeWidth=1;entryX=0.5;entryY=1;entryDx=0;entryDy=0;fillColor=#dae8fc;strokeColor=#6c8ebf;" edge="1" parent="1" source="zqkboVq3bq7hmdZX6oqV-190" target="zqkboVq3bq7hmdZX6oqV-116">
          <mxGeometry x="-0.67" relative="1" as="geometry">
            <mxPoint x="888" y="640" as="targetPoint" />
            <Array as="points">
              <mxPoint x="970" y="960" />
              <mxPoint x="888" y="960" />
            </Array>
            <mxPoint as="offset" />
          </mxGeometry>
        </mxCell>
        <mxCell id="zqkboVq3bq7hmdZX6oqV-187" value="Forward1" style="edgeStyle=orthogonalEdgeStyle;rounded=0;orthogonalLoop=1;jettySize=auto;html=1;exitX=0.5;exitY=0;exitDx=0;exitDy=0;entryX=0.5;entryY=1;entryDx=0;entryDy=0;fontSize=9;endArrow=classic;endFill=1;strokeWidth=1;fillColor=#dae8fc;strokeColor=#6c8ebf;" edge="1" parent="1" source="zqkboVq3bq7hmdZX6oqV-190" target="zqkboVq3bq7hmdZX6oqV-112">
          <mxGeometry x="-0.765" relative="1" as="geometry">
            <Array as="points">
              <mxPoint x="1000" y="940" />
              <mxPoint x="919" y="940" />
              <mxPoint x="919" y="520" />
              <mxPoint x="888" y="520" />
            </Array>
            <mxPoint as="offset" />
          </mxGeometry>
        </mxCell>
        <mxCell id="zqkboVq3bq7hmdZX6oqV-188" style="edgeStyle=orthogonalEdgeStyle;rounded=0;orthogonalLoop=1;jettySize=auto;html=1;exitX=0.999;exitY=0.968;exitDx=0;exitDy=0;entryX=0;entryY=0.5;entryDx=0;entryDy=0;strokeWidth=1;exitPerimeter=0;" edge="1" parent="1" source="zqkboVq3bq7hmdZX6oqV-36" target="zqkboVq3bq7hmdZX6oqV-190">
          <mxGeometry relative="1" as="geometry">
            <Array as="points">
              <mxPoint x="826" y="852" />
              <mxPoint x="826" y="1010" />
            </Array>
          </mxGeometry>
        </mxCell>
        <mxCell id="zqkboVq3bq7hmdZX6oqV-189" value="id/ex Rscr" style="edgeLabel;html=1;align=center;verticalAlign=middle;resizable=0;points=[];" vertex="1" connectable="0" parent="zqkboVq3bq7hmdZX6oqV-188">
          <mxGeometry x="0.5121" y="3" relative="1" as="geometry">
            <mxPoint x="7" y="3" as="offset" />
          </mxGeometry>
        </mxCell>
        <mxCell id="zqkboVq3bq7hmdZX6oqV-190" value="&lt;font style=&quot;font-size: 12px&quot;&gt;Forwarding&lt;br&gt;Unit&lt;/font&gt;" style="rounded=1;whiteSpace=wrap;html=1;fontSize=9;" vertex="1" parent="1">
          <mxGeometry x="940" y="980" width="120" height="60" as="geometry" />
        </mxCell>
        <mxCell id="zqkboVq3bq7hmdZX6oqV-191" value="2" style="edgeStyle=orthogonalEdgeStyle;rounded=0;orthogonalLoop=1;jettySize=auto;html=1;fontSize=9;endArrow=classic;endFill=1;strokeWidth=1;entryX=0;entryY=0.25;entryDx=0;entryDy=0;" edge="1" parent="1" target="zqkboVq3bq7hmdZX6oqV-272">
          <mxGeometry x="-1" relative="1" as="geometry">
            <mxPoint x="1350" y="463" as="sourcePoint" />
            <Array as="points">
              <mxPoint x="1360" y="463" />
            </Array>
            <mxPoint as="offset" />
          </mxGeometry>
        </mxCell>
        <mxCell id="zqkboVq3bq7hmdZX6oqV-192" value="" style="verticalLabelPosition=bottom;verticalAlign=top;html=1;shape=trapezoid;perimeter=trapezoidPerimeter;whiteSpace=wrap;size=0.23;arcSize=10;flipV=1;direction=south;rotation=0;" vertex="1" parent="1">
          <mxGeometry x="1394" y="486" width="16" height="27" as="geometry" />
        </mxCell>
        <mxCell id="zqkboVq3bq7hmdZX6oqV-193" style="edgeStyle=orthogonalEdgeStyle;rounded=0;orthogonalLoop=1;jettySize=auto;html=1;exitX=1;exitY=0.5;exitDx=0;exitDy=0;entryX=0;entryY=0.25;entryDx=0;entryDy=0;fontSize=8;endArrow=classic;endFill=1;strokeWidth=1;" edge="1" parent="1" source="zqkboVq3bq7hmdZX6oqV-194" target="zqkboVq3bq7hmdZX6oqV-177">
          <mxGeometry relative="1" as="geometry" />
        </mxCell>
        <mxCell id="zqkboVq3bq7hmdZX6oqV-194" value="Add" style="text;html=1;strokeColor=none;fillColor=none;align=center;verticalAlign=middle;whiteSpace=wrap;rounded=0;fontSize=8;" vertex="1" parent="1">
          <mxGeometry x="1394" y="493.63" width="16" height="11.75" as="geometry" />
        </mxCell>
        <mxCell id="zqkboVq3bq7hmdZX6oqV-195" value="Add/Sub" style="text;html=1;strokeColor=none;fillColor=none;align=center;verticalAlign=middle;whiteSpace=wrap;rounded=0;fontSize=8;" vertex="1" parent="1">
          <mxGeometry x="1514" y="739.88" width="36" height="14.25" as="geometry" />
        </mxCell>
        <mxCell id="zqkboVq3bq7hmdZX6oqV-196" style="edgeStyle=orthogonalEdgeStyle;rounded=0;orthogonalLoop=1;jettySize=auto;html=1;exitX=1;exitY=0.5;exitDx=0;exitDy=0;entryX=-0.01;entryY=0.63;entryDx=0;entryDy=0;entryPerimeter=0;labelBackgroundColor=#FFFFFF;fontSize=10;endArrow=classic;endFill=1;strokeColor=#000000;strokeWidth=1;" edge="1" parent="1" source="zqkboVq3bq7hmdZX6oqV-198" target="zqkboVq3bq7hmdZX6oqV-36">
          <mxGeometry relative="1" as="geometry">
            <Array as="points">
              <mxPoint x="700" y="671" />
              <mxPoint x="700" y="558" />
            </Array>
          </mxGeometry>
        </mxCell>
        <mxCell id="zqkboVq3bq7hmdZX6oqV-197" value="regFileData2" style="edgeLabel;html=1;align=center;verticalAlign=middle;resizable=0;points=[];fontSize=6;" vertex="1" connectable="0" parent="zqkboVq3bq7hmdZX6oqV-196">
          <mxGeometry x="-0.0336" y="1" relative="1" as="geometry">
            <mxPoint as="offset" />
          </mxGeometry>
        </mxCell>
        <mxCell id="zqkboVq3bq7hmdZX6oqV-198" value="MUX&lt;br&gt;4x1" style="rounded=1;whiteSpace=wrap;html=1;" vertex="1" parent="1">
          <mxGeometry x="610" y="621" width="30" height="100" as="geometry" />
        </mxCell>
        <mxCell id="zqkboVq3bq7hmdZX6oqV-199" value="R[Rdst]" style="text;html=1;strokeColor=none;fillColor=none;align=center;verticalAlign=middle;whiteSpace=wrap;rounded=0;" vertex="1" parent="1">
          <mxGeometry x="589" y="457" width="38" height="20" as="geometry" />
        </mxCell>
        <mxCell id="zqkboVq3bq7hmdZX6oqV-200" value="SP" style="rounded=0;whiteSpace=wrap;html=1;" vertex="1" parent="1">
          <mxGeometry x="1417" y="717" width="40" height="60" as="geometry" />
        </mxCell>
        <mxCell id="zqkboVq3bq7hmdZX6oqV-201" style="edgeStyle=orthogonalEdgeStyle;rounded=0;orthogonalLoop=1;jettySize=auto;html=1;exitX=0.876;exitY=0.507;exitDx=0;exitDy=0;entryX=0.75;entryY=1;entryDx=0;entryDy=0;labelBackgroundColor=#FFFFFF;fontSize=8;endArrow=classic;endFill=1;strokeColor=#000000;strokeWidth=1;exitPerimeter=0;" edge="1" parent="1" source="zqkboVq3bq7hmdZX6oqV-202" target="zqkboVq3bq7hmdZX6oqV-126">
          <mxGeometry relative="1" as="geometry">
            <Array as="points">
              <mxPoint x="1592" y="700" />
              <mxPoint x="1592" y="730" />
            </Array>
          </mxGeometry>
        </mxCell>
        <mxCell id="zqkboVq3bq7hmdZX6oqV-202" value="" style="shape=image;html=1;verticalAlign=top;verticalLabelPosition=bottom;labelBackgroundColor=#ffffff;imageAspect=0;aspect=fixed;image=https://cdn4.iconfinder.com/data/icons/essential-app-2/16/record-round-circle-dot-128.png;fontSize=9;" vertex="1" parent="1">
          <mxGeometry x="1434" y="697" width="6" height="6" as="geometry" />
        </mxCell>
        <mxCell id="zqkboVq3bq7hmdZX6oqV-203" style="edgeStyle=orthogonalEdgeStyle;rounded=0;orthogonalLoop=1;jettySize=auto;html=1;exitX=1;exitY=0.5;exitDx=0;exitDy=0;entryX=0;entryY=0.25;entryDx=0;entryDy=0;labelBackgroundColor=#FFFFFF;fontSize=13;endArrow=classic;endFill=1;strokeColor=#000000;strokeWidth=1;" edge="1" parent="1" source="zqkboVq3bq7hmdZX6oqV-204" target="zqkboVq3bq7hmdZX6oqV-206">
          <mxGeometry relative="1" as="geometry" />
        </mxCell>
        <mxCell id="zqkboVq3bq7hmdZX6oqV-204" value="MUX&lt;br&gt;2x1" style="rounded=1;whiteSpace=wrap;html=1;" vertex="1" parent="1">
          <mxGeometry x="-434" y="323" width="30" height="100" as="geometry" />
        </mxCell>
        <mxCell id="zqkboVq3bq7hmdZX6oqV-205" style="edgeStyle=orthogonalEdgeStyle;rounded=0;orthogonalLoop=1;jettySize=auto;html=1;exitX=1;exitY=0.5;exitDx=0;exitDy=0;entryX=0;entryY=0.25;entryDx=0;entryDy=0;labelBackgroundColor=#FFFFFF;fontSize=13;endArrow=classic;endFill=1;strokeColor=#000000;strokeWidth=1;" edge="1" parent="1" source="zqkboVq3bq7hmdZX6oqV-206" target="zqkboVq3bq7hmdZX6oqV-208">
          <mxGeometry relative="1" as="geometry" />
        </mxCell>
        <mxCell id="zqkboVq3bq7hmdZX6oqV-206" value="MUX&lt;br&gt;2x1" style="rounded=1;whiteSpace=wrap;html=1;" vertex="1" parent="1">
          <mxGeometry x="-349" y="347.95" width="30" height="100" as="geometry" />
        </mxCell>
        <mxCell id="zqkboVq3bq7hmdZX6oqV-207" style="edgeStyle=orthogonalEdgeStyle;rounded=0;orthogonalLoop=1;jettySize=auto;html=1;exitX=1;exitY=0.5;exitDx=0;exitDy=0;entryX=0.029;entryY=0.289;entryDx=0;entryDy=0;entryPerimeter=0;fontSize=8;" edge="1" parent="1" source="zqkboVq3bq7hmdZX6oqV-208" target="zqkboVq3bq7hmdZX6oqV-234">
          <mxGeometry relative="1" as="geometry" />
        </mxCell>
        <mxCell id="zqkboVq3bq7hmdZX6oqV-208" value="MUX&lt;br&gt;2x1" style="rounded=1;whiteSpace=wrap;html=1;" vertex="1" parent="1">
          <mxGeometry x="-264" y="373.56" width="30" height="100" as="geometry" />
        </mxCell>
        <mxCell id="zqkboVq3bq7hmdZX6oqV-209" style="edgeStyle=orthogonalEdgeStyle;rounded=0;orthogonalLoop=1;jettySize=auto;html=1;exitX=1;exitY=0.5;exitDx=0;exitDy=0;entryX=-0.011;entryY=0.237;entryDx=0;entryDy=0;entryPerimeter=0;" edge="1" parent="1" source="zqkboVq3bq7hmdZX6oqV-211" target="zqkboVq3bq7hmdZX6oqV-36">
          <mxGeometry relative="1" as="geometry">
            <mxPoint x="735.4482590247844" y="216.55172413793116" as="targetPoint" />
          </mxGeometry>
        </mxCell>
        <mxCell id="zqkboVq3bq7hmdZX6oqV-210" value="&lt;span style=&quot;font-size: 9px&quot;&gt;inst[29-24]&lt;/span&gt;" style="edgeLabel;html=1;align=center;verticalAlign=middle;resizable=0;points=[];" vertex="1" connectable="0" parent="zqkboVq3bq7hmdZX6oqV-209">
          <mxGeometry x="-0.2983" relative="1" as="geometry">
            <mxPoint as="offset" />
          </mxGeometry>
        </mxCell>
        <mxCell id="zqkboVq3bq7hmdZX6oqV-211" value="" style="shape=image;html=1;verticalAlign=top;verticalLabelPosition=bottom;labelBackgroundColor=#ffffff;imageAspect=0;aspect=fixed;image=https://cdn4.iconfinder.com/data/icons/essential-app-2/16/record-round-circle-dot-128.png;fontSize=9;" vertex="1" parent="1">
          <mxGeometry x="291" y="213.75" width="6" height="6" as="geometry" />
        </mxCell>
        <mxCell id="zqkboVq3bq7hmdZX6oqV-212" style="edgeStyle=orthogonalEdgeStyle;rounded=0;orthogonalLoop=1;jettySize=auto;html=1;exitX=0.996;exitY=0.824;exitDx=0;exitDy=0;entryX=-0.003;entryY=0.742;entryDx=0;entryDy=0;exitPerimeter=0;entryPerimeter=0;" edge="1" parent="1" target="zqkboVq3bq7hmdZX6oqV-217">
          <mxGeometry relative="1" as="geometry">
            <mxPoint x="784.8199999999997" y="756.8799999999997" as="sourcePoint" />
            <mxPoint x="1030" y="757.75" as="targetPoint" />
            <Array as="points" />
          </mxGeometry>
        </mxCell>
        <mxCell id="zqkboVq3bq7hmdZX6oqV-213" value="inst[29-24]" style="edgeLabel;html=1;align=center;verticalAlign=middle;resizable=0;points=[];fontSize=7;" vertex="1" connectable="0" parent="zqkboVq3bq7hmdZX6oqV-212">
          <mxGeometry x="0.7467" y="2" relative="1" as="geometry">
            <mxPoint y="2" as="offset" />
          </mxGeometry>
        </mxCell>
        <mxCell id="zqkboVq3bq7hmdZX6oqV-214" value="Opcode" style="edgeLabel;html=1;align=center;verticalAlign=middle;resizable=0;points=[];" vertex="1" connectable="0" parent="zqkboVq3bq7hmdZX6oqV-212">
          <mxGeometry x="0.3203" y="-1" relative="1" as="geometry">
            <mxPoint as="offset" />
          </mxGeometry>
        </mxCell>
        <mxCell id="zqkboVq3bq7hmdZX6oqV-215" style="edgeStyle=orthogonalEdgeStyle;rounded=0;orthogonalLoop=1;jettySize=auto;html=1;exitX=1;exitY=0.5;exitDx=0;exitDy=0;entryX=0.535;entryY=0.835;entryDx=0;entryDy=0;entryPerimeter=0;fontSize=7;fillColor=#dae8fc;strokeColor=#6c8ebf;" edge="1" parent="1" source="zqkboVq3bq7hmdZX6oqV-217" target="zqkboVq3bq7hmdZX6oqV-81">
          <mxGeometry relative="1" as="geometry">
            <Array as="points">
              <mxPoint x="1080" y="742" />
              <mxPoint x="1080" y="678" />
              <mxPoint x="1043" y="678" />
            </Array>
          </mxGeometry>
        </mxCell>
        <mxCell id="zqkboVq3bq7hmdZX6oqV-216" value="ALU func" style="edgeLabel;html=1;align=center;verticalAlign=middle;resizable=0;points=[];fontSize=7;" vertex="1" connectable="0" parent="zqkboVq3bq7hmdZX6oqV-215">
          <mxGeometry x="0.3187" relative="1" as="geometry">
            <mxPoint x="-9" as="offset" />
          </mxGeometry>
        </mxCell>
        <mxCell id="zqkboVq3bq7hmdZX6oqV-217" value="MUX&lt;br&gt;2x1" style="rounded=1;whiteSpace=wrap;html=1;" vertex="1" parent="1">
          <mxGeometry x="1030" y="713" width="30" height="59" as="geometry" />
        </mxCell>
        <mxCell id="zqkboVq3bq7hmdZX6oqV-218" value="0&#39;s" style="edgeStyle=orthogonalEdgeStyle;rounded=0;orthogonalLoop=1;jettySize=auto;html=1;entryX=-0.041;entryY=0.703;entryDx=0;entryDy=0;entryPerimeter=0;" edge="1" parent="1">
          <mxGeometry x="-0.8779" relative="1" as="geometry">
            <mxPoint x="1029.7700000000004" y="728.4770000000003" as="targetPoint" />
            <mxPoint x="1000" y="728" as="sourcePoint" />
            <Array as="points">
              <mxPoint x="997" y="728" />
              <mxPoint x="1000" y="728" />
            </Array>
            <mxPoint as="offset" />
          </mxGeometry>
        </mxCell>
        <mxCell id="zqkboVq3bq7hmdZX6oqV-219" style="edgeStyle=orthogonalEdgeStyle;rounded=0;orthogonalLoop=1;jettySize=auto;html=1;exitX=0.5;exitY=1;exitDx=0;exitDy=0;entryX=1.005;entryY=0.386;entryDx=0;entryDy=0;entryPerimeter=0;" edge="1" parent="1" source="zqkboVq3bq7hmdZX6oqV-221" target="zqkboVq3bq7hmdZX6oqV-190">
          <mxGeometry relative="1" as="geometry" />
        </mxCell>
        <mxCell id="zqkboVq3bq7hmdZX6oqV-220" value="ex/m Rdst" style="edgeLabel;html=1;align=center;verticalAlign=middle;resizable=0;points=[];" vertex="1" connectable="0" parent="zqkboVq3bq7hmdZX6oqV-219">
          <mxGeometry x="0.4563" y="-2" relative="1" as="geometry">
            <mxPoint x="-104" y="1" as="offset" />
          </mxGeometry>
        </mxCell>
        <mxCell id="zqkboVq3bq7hmdZX6oqV-221" value="" style="shape=image;html=1;verticalAlign=top;verticalLabelPosition=bottom;labelBackgroundColor=#ffffff;imageAspect=0;aspect=fixed;image=https://cdn4.iconfinder.com/data/icons/essential-app-2/16/record-round-circle-dot-128.png;fontSize=9;" vertex="1" parent="1">
          <mxGeometry x="1387" y="798" width="7" height="7" as="geometry" />
        </mxCell>
        <mxCell id="zqkboVq3bq7hmdZX6oqV-222" style="edgeStyle=orthogonalEdgeStyle;rounded=0;orthogonalLoop=1;jettySize=auto;html=1;exitX=0.5;exitY=1;exitDx=0;exitDy=0;entryX=0.849;entryY=0.016;entryDx=0;entryDy=0;entryPerimeter=0;" edge="1" parent="1" source="zqkboVq3bq7hmdZX6oqV-224" target="zqkboVq3bq7hmdZX6oqV-190">
          <mxGeometry relative="1" as="geometry" />
        </mxCell>
        <mxCell id="zqkboVq3bq7hmdZX6oqV-223" value="m/wb Rdst" style="edgeLabel;html=1;align=center;verticalAlign=middle;resizable=0;points=[];" vertex="1" connectable="0" parent="zqkboVq3bq7hmdZX6oqV-222">
          <mxGeometry x="0.0538" relative="1" as="geometry">
            <mxPoint as="offset" />
          </mxGeometry>
        </mxCell>
        <mxCell id="zqkboVq3bq7hmdZX6oqV-224" value="" style="shape=image;html=1;verticalAlign=top;verticalLabelPosition=bottom;labelBackgroundColor=#ffffff;imageAspect=0;aspect=fixed;image=https://cdn4.iconfinder.com/data/icons/essential-app-2/16/record-round-circle-dot-128.png;fontSize=9;" vertex="1" parent="1">
          <mxGeometry x="1039" y="897" width="6" height="6" as="geometry" />
        </mxCell>
        <mxCell id="zqkboVq3bq7hmdZX6oqV-225" style="edgeStyle=orthogonalEdgeStyle;rounded=0;orthogonalLoop=1;jettySize=auto;html=1;exitX=0.5;exitY=0;exitDx=0;exitDy=0;entryX=0.25;entryY=1;entryDx=0;entryDy=0;endArrow=classic;endFill=1;" edge="1" parent="1" source="zqkboVq3bq7hmdZX6oqV-227" target="zqkboVq3bq7hmdZX6oqV-17">
          <mxGeometry relative="1" as="geometry">
            <Array as="points">
              <mxPoint x="359" y="-88" />
              <mxPoint x="400" y="-88" />
            </Array>
          </mxGeometry>
        </mxCell>
        <mxCell id="zqkboVq3bq7hmdZX6oqV-226" value="Rdst" style="edgeLabel;html=1;align=center;verticalAlign=middle;resizable=0;points=[];" vertex="1" connectable="0" parent="zqkboVq3bq7hmdZX6oqV-225">
          <mxGeometry x="0.767" y="-1" relative="1" as="geometry">
            <mxPoint y="1" as="offset" />
          </mxGeometry>
        </mxCell>
        <mxCell id="zqkboVq3bq7hmdZX6oqV-227" value="" style="shape=image;html=1;verticalAlign=top;verticalLabelPosition=bottom;labelBackgroundColor=#ffffff;imageAspect=0;aspect=fixed;image=https://cdn4.iconfinder.com/data/icons/essential-app-2/16/record-round-circle-dot-128.png;fontSize=9;" vertex="1" parent="1">
          <mxGeometry x="356" y="377" width="6" height="6" as="geometry" />
        </mxCell>
        <mxCell id="zqkboVq3bq7hmdZX6oqV-228" style="edgeStyle=orthogonalEdgeStyle;rounded=0;orthogonalLoop=1;jettySize=auto;html=1;exitX=0.25;exitY=1;exitDx=0;exitDy=0;entryX=0.037;entryY=0.968;entryDx=0;entryDy=0;entryPerimeter=0;" edge="1" parent="1" source="zqkboVq3bq7hmdZX6oqV-230" target="zqkboVq3bq7hmdZX6oqV-36">
          <mxGeometry relative="1" as="geometry" />
        </mxCell>
        <mxCell id="zqkboVq3bq7hmdZX6oqV-229" value="Rsrc" style="edgeLabel;html=1;align=center;verticalAlign=middle;resizable=0;points=[];" vertex="1" connectable="0" parent="zqkboVq3bq7hmdZX6oqV-228">
          <mxGeometry x="0.4189" y="5" relative="1" as="geometry">
            <mxPoint x="-4" y="5" as="offset" />
          </mxGeometry>
        </mxCell>
        <mxCell id="zqkboVq3bq7hmdZX6oqV-230" value="" style="shape=image;html=1;verticalAlign=top;verticalLabelPosition=bottom;labelBackgroundColor=#ffffff;imageAspect=0;aspect=fixed;image=https://cdn4.iconfinder.com/data/icons/essential-app-2/16/record-round-circle-dot-128.png;fontSize=9;" vertex="1" parent="1">
          <mxGeometry x="376" y="347" width="6" height="6" as="geometry" />
        </mxCell>
        <mxCell id="zqkboVq3bq7hmdZX6oqV-231" style="edgeStyle=orthogonalEdgeStyle;rounded=0;orthogonalLoop=1;jettySize=auto;html=1;exitX=1;exitY=0.5;exitDx=0;exitDy=0;entryX=0;entryY=0.5;entryDx=0;entryDy=0;fontSize=8;" edge="1" parent="1" source="zqkboVq3bq7hmdZX6oqV-234" target="zqkboVq3bq7hmdZX6oqV-2">
          <mxGeometry relative="1" as="geometry" />
        </mxCell>
        <mxCell id="zqkboVq3bq7hmdZX6oqV-232" value="Reset" style="edgeStyle=orthogonalEdgeStyle;rounded=0;orthogonalLoop=1;jettySize=auto;html=1;fontSize=14;entryX=0.5;entryY=0;entryDx=0;entryDy=0;strokeWidth=1;" edge="1" parent="1" target="zqkboVq3bq7hmdZX6oqV-234">
          <mxGeometry x="-0.9235" y="10" relative="1" as="geometry">
            <mxPoint x="-565" y="150" as="sourcePoint" />
            <Array as="points">
              <mxPoint x="-178" y="150" />
            </Array>
            <mxPoint as="offset" />
          </mxGeometry>
        </mxCell>
        <mxCell id="zqkboVq3bq7hmdZX6oqV-233" value="Reset" style="edgeLabel;html=1;align=center;verticalAlign=middle;resizable=0;points=[];" vertex="1" connectable="0" parent="zqkboVq3bq7hmdZX6oqV-232">
          <mxGeometry x="0.6418" y="3" relative="1" as="geometry">
            <mxPoint x="-3" y="50" as="offset" />
          </mxGeometry>
        </mxCell>
        <mxCell id="zqkboVq3bq7hmdZX6oqV-234" value="MUX&lt;br&gt;2x1" style="rounded=1;whiteSpace=wrap;html=1;" vertex="1" parent="1">
          <mxGeometry x="-193" y="395.12" width="30" height="100" as="geometry" />
        </mxCell>
        <mxCell id="zqkboVq3bq7hmdZX6oqV-235" style="edgeStyle=orthogonalEdgeStyle;rounded=0;orthogonalLoop=1;jettySize=auto;html=1;exitX=0.5;exitY=1;exitDx=0;exitDy=0;fontSize=8;entryX=0;entryY=0.75;entryDx=0;entryDy=0;" edge="1" parent="1" source="zqkboVq3bq7hmdZX6oqV-237" target="zqkboVq3bq7hmdZX6oqV-234">
          <mxGeometry relative="1" as="geometry">
            <mxPoint x="-280.6824863978791" y="1020.0318429129464" as="targetPoint" />
            <Array as="points">
              <mxPoint x="1544" y="593" />
              <mxPoint x="1493" y="593" />
              <mxPoint x="1493" y="1072" />
              <mxPoint x="-221" y="1072" />
              <mxPoint x="-221" y="470" />
            </Array>
          </mxGeometry>
        </mxCell>
        <mxCell id="zqkboVq3bq7hmdZX6oqV-236" value="M[0]" style="edgeLabel;html=1;align=center;verticalAlign=middle;resizable=0;points=[];fontSize=11;" vertex="1" connectable="0" parent="zqkboVq3bq7hmdZX6oqV-235">
          <mxGeometry x="0.9442" y="-2" relative="1" as="geometry">
            <mxPoint y="44" as="offset" />
          </mxGeometry>
        </mxCell>
        <mxCell id="zqkboVq3bq7hmdZX6oqV-237" value="M[0]" style="text;html=1;strokeColor=none;fillColor=none;align=center;verticalAlign=middle;whiteSpace=wrap;rounded=0;" vertex="1" parent="1">
          <mxGeometry x="1524" y="522" width="40" height="20" as="geometry" />
        </mxCell>
        <mxCell id="zqkboVq3bq7hmdZX6oqV-238" value="0" style="edgeStyle=orthogonalEdgeStyle;rounded=0;orthogonalLoop=1;jettySize=auto;html=1;entryX=0;entryY=0.75;entryDx=0;entryDy=0;" edge="1" parent="1">
          <mxGeometry x="-1" relative="1" as="geometry">
            <mxPoint x="-143" y="337.00000000000045" as="sourcePoint" />
            <mxPoint as="offset" />
            <mxPoint x="-114" y="336.5" as="targetPoint" />
            <Array as="points">
              <mxPoint x="-143" y="336" />
            </Array>
          </mxGeometry>
        </mxCell>
        <mxCell id="zqkboVq3bq7hmdZX6oqV-239" value="num" style="edgeStyle=orthogonalEdgeStyle;rounded=0;orthogonalLoop=1;jettySize=auto;html=1;exitX=1;exitY=0.5;exitDx=0;exitDy=0;entryX=0.703;entryY=1.013;entryDx=0;entryDy=0;entryPerimeter=0;" edge="1" parent="1" source="zqkboVq3bq7hmdZX6oqV-240" target="zqkboVq3bq7hmdZX6oqV-119">
          <mxGeometry x="0.0165" relative="1" as="geometry">
            <mxPoint as="offset" />
            <Array as="points">
              <mxPoint x="-68" y="322" />
              <mxPoint x="-68" y="304" />
            </Array>
          </mxGeometry>
        </mxCell>
        <mxCell id="zqkboVq3bq7hmdZX6oqV-240" value="MUX&lt;br&gt;4x1" style="rounded=1;whiteSpace=wrap;html=1;" vertex="1" parent="1">
          <mxGeometry x="-114" y="275" width="30" height="94" as="geometry" />
        </mxCell>
        <mxCell id="zqkboVq3bq7hmdZX6oqV-241" style="edgeStyle=orthogonalEdgeStyle;rounded=0;orthogonalLoop=1;jettySize=auto;html=1;exitX=1;exitY=0.25;exitDx=0;exitDy=0;entryX=0.5;entryY=0;entryDx=0;entryDy=0;fontSize=11;strokeWidth=1;fillColor=#dae8fc;strokeColor=#6c8ebf;" edge="1" parent="1" target="zqkboVq3bq7hmdZX6oqV-204">
          <mxGeometry relative="1" as="geometry">
            <Array as="points">
              <mxPoint x="797" y="-121" />
              <mxPoint x="797" y="-303" />
              <mxPoint x="-419" y="-303" />
            </Array>
            <mxPoint x="767" y="-121" as="sourcePoint" />
            <mxPoint x="-437" y="323" as="targetPoint" />
          </mxGeometry>
        </mxCell>
        <mxCell id="zqkboVq3bq7hmdZX6oqV-242" value="call&lt;br&gt;op" style="edgeLabel;html=1;align=center;verticalAlign=middle;resizable=0;points=[];fontSize=11;" vertex="1" connectable="0" parent="zqkboVq3bq7hmdZX6oqV-241">
          <mxGeometry x="0.9075" y="4" relative="1" as="geometry">
            <mxPoint x="-4" as="offset" />
          </mxGeometry>
        </mxCell>
        <mxCell id="zqkboVq3bq7hmdZX6oqV-243" style="edgeStyle=orthogonalEdgeStyle;rounded=0;orthogonalLoop=1;jettySize=auto;html=1;exitX=1;exitY=0.5;exitDx=0;exitDy=0;entryX=-0.01;entryY=0.286;entryDx=0;entryDy=0;fontSize=11;strokeWidth=1;fillColor=#dae8fc;strokeColor=#6c8ebf;entryPerimeter=0;" edge="1" parent="1" source="zqkboVq3bq7hmdZX6oqV-245" target="zqkboVq3bq7hmdZX6oqV-251">
          <mxGeometry relative="1" as="geometry">
            <Array as="points">
              <mxPoint x="1246" y="-114" />
              <mxPoint x="1246" y="-80" />
            </Array>
          </mxGeometry>
        </mxCell>
        <mxCell id="zqkboVq3bq7hmdZX6oqV-244" value="ret-op" style="edgeLabel;html=1;align=center;verticalAlign=middle;resizable=0;points=[];" vertex="1" connectable="0" parent="zqkboVq3bq7hmdZX6oqV-243">
          <mxGeometry x="0.5693" y="1" relative="1" as="geometry">
            <mxPoint as="offset" />
          </mxGeometry>
        </mxCell>
        <mxCell id="zqkboVq3bq7hmdZX6oqV-245" value="PC opr" style="rounded=0;whiteSpace=wrap;html=1;" vertex="1" parent="1">
          <mxGeometry x="740" y="-128" width="45" height="28" as="geometry" />
        </mxCell>
        <mxCell id="zqkboVq3bq7hmdZX6oqV-246" style="edgeStyle=orthogonalEdgeStyle;rounded=0;orthogonalLoop=1;jettySize=auto;html=1;exitX=1;exitY=0.25;exitDx=0;exitDy=0;fontSize=11;strokeWidth=1;entryX=0.5;entryY=0;entryDx=0;entryDy=0;fillColor=#dae8fc;strokeColor=#6c8ebf;" edge="1" parent="1" source="zqkboVq3bq7hmdZX6oqV-251" target="zqkboVq3bq7hmdZX6oqV-206">
          <mxGeometry relative="1" as="geometry">
            <mxPoint x="-428.97377642463243" y="244.575123506434" as="targetPoint" />
            <Array as="points">
              <mxPoint x="1338" y="-81" />
              <mxPoint x="1338" y="-314" />
              <mxPoint x="-334" y="-314" />
            </Array>
          </mxGeometry>
        </mxCell>
        <mxCell id="zqkboVq3bq7hmdZX6oqV-247" value="br-taken" style="edgeLabel;html=1;align=center;verticalAlign=middle;resizable=0;points=[];fontSize=11;" vertex="1" connectable="0" parent="zqkboVq3bq7hmdZX6oqV-246">
          <mxGeometry x="0.9071" y="-1" relative="1" as="geometry">
            <mxPoint as="offset" />
          </mxGeometry>
        </mxCell>
        <mxCell id="zqkboVq3bq7hmdZX6oqV-248" value="br-taken" style="edgeLabel;html=1;align=center;verticalAlign=middle;resizable=0;points=[];" vertex="1" connectable="0" parent="zqkboVq3bq7hmdZX6oqV-246">
          <mxGeometry x="-0.937" y="-2" relative="1" as="geometry">
            <mxPoint as="offset" />
          </mxGeometry>
        </mxCell>
        <mxCell id="zqkboVq3bq7hmdZX6oqV-249" style="edgeStyle=orthogonalEdgeStyle;rounded=0;orthogonalLoop=1;jettySize=auto;html=1;exitX=1;exitY=0.5;exitDx=0;exitDy=0;entryX=0;entryY=0.5;entryDx=0;entryDy=0;fontSize=11;strokeWidth=1;fillColor=#dae8fc;strokeColor=#6c8ebf;" edge="1" parent="1" source="zqkboVq3bq7hmdZX6oqV-251" target="zqkboVq3bq7hmdZX6oqV-255">
          <mxGeometry relative="1" as="geometry">
            <Array as="points">
              <mxPoint x="1637" y="-74" />
              <mxPoint x="1637" y="221" />
            </Array>
          </mxGeometry>
        </mxCell>
        <mxCell id="zqkboVq3bq7hmdZX6oqV-250" value="ret&lt;br&gt;op" style="edgeLabel;html=1;align=center;verticalAlign=middle;resizable=0;points=[];" vertex="1" connectable="0" parent="zqkboVq3bq7hmdZX6oqV-249">
          <mxGeometry x="0.7836" y="-2" relative="1" as="geometry">
            <mxPoint x="3" as="offset" />
          </mxGeometry>
        </mxCell>
        <mxCell id="zqkboVq3bq7hmdZX6oqV-251" value="PC opr" style="rounded=0;whiteSpace=wrap;html=1;" vertex="1" parent="1">
          <mxGeometry x="1273" y="-88.25" width="45" height="28" as="geometry" />
        </mxCell>
        <mxCell id="zqkboVq3bq7hmdZX6oqV-252" style="edgeStyle=orthogonalEdgeStyle;rounded=0;orthogonalLoop=1;jettySize=auto;html=1;exitX=1;exitY=0.5;exitDx=0;exitDy=0;entryX=0.5;entryY=0;entryDx=0;entryDy=0;fontSize=11;strokeWidth=1;fillColor=#dae8fc;strokeColor=#6c8ebf;" edge="1" parent="1">
          <mxGeometry relative="1" as="geometry">
            <Array as="points">
              <mxPoint x="1740" y="221" />
              <mxPoint x="1740" y="-325" />
              <mxPoint x="-248" y="-325" />
            </Array>
            <mxPoint x="1709.000000000001" y="221" as="sourcePoint" />
            <mxPoint x="-248" y="373.55999999999995" as="targetPoint" />
          </mxGeometry>
        </mxCell>
        <mxCell id="zqkboVq3bq7hmdZX6oqV-253" value="ret&lt;br&gt;op" style="edgeLabel;html=1;align=center;verticalAlign=middle;resizable=0;points=[];fontSize=11;" vertex="1" connectable="0" parent="zqkboVq3bq7hmdZX6oqV-252">
          <mxGeometry x="0.9036" y="-4" relative="1" as="geometry">
            <mxPoint x="4" y="13" as="offset" />
          </mxGeometry>
        </mxCell>
        <mxCell id="zqkboVq3bq7hmdZX6oqV-254" value="ret&lt;br&gt;op" style="edgeLabel;html=1;align=center;verticalAlign=middle;resizable=0;points=[];" vertex="1" connectable="0" parent="zqkboVq3bq7hmdZX6oqV-252">
          <mxGeometry x="-0.9419" y="2" relative="1" as="geometry">
            <mxPoint as="offset" />
          </mxGeometry>
        </mxCell>
        <mxCell id="zqkboVq3bq7hmdZX6oqV-255" value="PC opr" style="rounded=0;whiteSpace=wrap;html=1;" vertex="1" parent="1">
          <mxGeometry x="1663" y="207" width="45" height="28" as="geometry" />
        </mxCell>
        <mxCell id="zqkboVq3bq7hmdZX6oqV-256" style="edgeStyle=orthogonalEdgeStyle;rounded=0;orthogonalLoop=1;jettySize=auto;html=1;entryX=1;entryY=0.25;entryDx=0;entryDy=0;fillColor=#dae8fc;strokeColor=#6c8ebf;" edge="1" parent="1" source="zqkboVq3bq7hmdZX6oqV-258" target="zqkboVq3bq7hmdZX6oqV-17">
          <mxGeometry relative="1" as="geometry">
            <Array as="points">
              <mxPoint x="1264" y="-245" />
              <mxPoint x="1264" y="-245" />
            </Array>
          </mxGeometry>
        </mxCell>
        <mxCell id="zqkboVq3bq7hmdZX6oqV-257" value="br-taken" style="edgeLabel;html=1;align=center;verticalAlign=middle;resizable=0;points=[];" vertex="1" connectable="0" parent="zqkboVq3bq7hmdZX6oqV-256">
          <mxGeometry x="-0.2729" y="4" relative="1" as="geometry">
            <mxPoint y="-4" as="offset" />
          </mxGeometry>
        </mxCell>
        <mxCell id="zqkboVq3bq7hmdZX6oqV-258" value="" style="shape=image;html=1;verticalAlign=top;verticalLabelPosition=bottom;labelBackgroundColor=#ffffff;imageAspect=0;aspect=fixed;image=https://cdn4.iconfinder.com/data/icons/essential-app-2/16/record-round-circle-dot-128.png;fontSize=9;" vertex="1" parent="1">
          <mxGeometry x="1335" y="-248" width="6" height="6" as="geometry" />
        </mxCell>
        <mxCell id="zqkboVq3bq7hmdZX6oqV-259" value="" style="shape=image;html=1;verticalAlign=top;verticalLabelPosition=bottom;labelBackgroundColor=#ffffff;imageAspect=0;aspect=fixed;image=https://cdn1.iconfinder.com/data/icons/feather-2/24/x-128.png;fontSize=9;" vertex="1" parent="1">
          <mxGeometry x="-577" y="139" width="22" height="22" as="geometry" />
        </mxCell>
        <mxCell id="zqkboVq3bq7hmdZX6oqV-260" value="" style="shape=image;html=1;verticalAlign=top;verticalLabelPosition=bottom;labelBackgroundColor=#ffffff;imageAspect=0;aspect=fixed;image=https://cdn4.iconfinder.com/data/icons/essential-app-2/16/record-round-circle-dot-128.png;fontSize=9;" vertex="1" parent="1">
          <mxGeometry x="664" y="557" width="6" height="6" as="geometry" />
        </mxCell>
        <mxCell id="zqkboVq3bq7hmdZX6oqV-261" value="id/ex Rdst" style="edgeStyle=orthogonalEdgeStyle;rounded=0;orthogonalLoop=1;jettySize=auto;html=1;exitX=0.512;exitY=0.894;exitDx=0;exitDy=0;entryX=0;entryY=0.75;entryDx=0;entryDy=0;strokeWidth=1;exitPerimeter=0;" edge="1" parent="1" source="zqkboVq3bq7hmdZX6oqV-262" target="zqkboVq3bq7hmdZX6oqV-190">
          <mxGeometry x="0.5391" relative="1" as="geometry">
            <Array as="points">
              <mxPoint x="811" y="1025" />
            </Array>
            <mxPoint x="1" as="offset" />
          </mxGeometry>
        </mxCell>
        <mxCell id="zqkboVq3bq7hmdZX6oqV-262" value="" style="shape=image;html=1;verticalAlign=top;verticalLabelPosition=bottom;labelBackgroundColor=#ffffff;imageAspect=0;aspect=fixed;image=https://cdn4.iconfinder.com/data/icons/essential-app-2/16/record-round-circle-dot-128.png;fontSize=9;" vertex="1" parent="1">
          <mxGeometry x="808" y="798" width="6" height="6" as="geometry" />
        </mxCell>
        <mxCell id="zqkboVq3bq7hmdZX6oqV-263" style="edgeStyle=orthogonalEdgeStyle;rounded=0;orthogonalLoop=1;jettySize=auto;html=1;exitX=0.498;exitY=0.243;exitDx=0;exitDy=0;entryX=-0.021;entryY=0.03;entryDx=0;entryDy=0;entryPerimeter=0;strokeWidth=1;exitPerimeter=0;" edge="1" parent="1" source="zqkboVq3bq7hmdZX6oqV-265" target="zqkboVq3bq7hmdZX6oqV-8">
          <mxGeometry relative="1" as="geometry">
            <Array as="points">
              <mxPoint x="27" y="422" />
              <mxPoint x="52" y="422" />
              <mxPoint x="52" y="357" />
              <mxPoint x="106" y="357" />
              <mxPoint x="106" y="199" />
            </Array>
          </mxGeometry>
        </mxCell>
        <mxCell id="zqkboVq3bq7hmdZX6oqV-264" value="PC" style="edgeLabel;html=1;align=center;verticalAlign=middle;resizable=0;points=[];" vertex="1" connectable="0" parent="zqkboVq3bq7hmdZX6oqV-263">
          <mxGeometry x="0.7741" y="-1" relative="1" as="geometry">
            <mxPoint x="-20" as="offset" />
          </mxGeometry>
        </mxCell>
        <mxCell id="zqkboVq3bq7hmdZX6oqV-265" value="" style="shape=image;html=1;verticalAlign=top;verticalLabelPosition=bottom;labelBackgroundColor=#ffffff;imageAspect=0;aspect=fixed;image=https://cdn4.iconfinder.com/data/icons/essential-app-2/16/record-round-circle-dot-128.png;fontSize=9;" vertex="1" parent="1">
          <mxGeometry x="24" y="441.95" width="6" height="6" as="geometry" />
        </mxCell>
        <mxCell id="zqkboVq3bq7hmdZX6oqV-266" value="1" style="endArrow=classic;html=1;fontSize=10;entryX=0.25;entryY=1;entryDx=0;entryDy=0;edgeStyle=orthogonalEdgeStyle;" edge="1" parent="1">
          <mxGeometry x="-1" width="50" height="50" relative="1" as="geometry">
            <mxPoint x="-142" y="317.9200000000001" as="sourcePoint" />
            <mxPoint x="-114" y="317.9200000000001" as="targetPoint" />
            <Array as="points">
              <mxPoint x="-128" y="318" />
              <mxPoint x="-128" y="318" />
            </Array>
            <mxPoint as="offset" />
          </mxGeometry>
        </mxCell>
        <mxCell id="zqkboVq3bq7hmdZX6oqV-267" style="edgeStyle=orthogonalEdgeStyle;rounded=0;orthogonalLoop=1;jettySize=auto;html=1;exitX=0.5;exitY=1;exitDx=0;exitDy=0;entryX=0.75;entryY=0;entryDx=0;entryDy=0;" edge="1" parent="1" source="zqkboVq3bq7hmdZX6oqV-300" target="zqkboVq3bq7hmdZX6oqV-240">
          <mxGeometry relative="1" as="geometry" />
        </mxCell>
        <mxCell id="zqkboVq3bq7hmdZX6oqV-268" value="0" style="edgeStyle=orthogonalEdgeStyle;rounded=0;orthogonalLoop=1;jettySize=auto;html=1;entryX=0;entryY=0.75;entryDx=0;entryDy=0;" edge="1" parent="1">
          <mxGeometry x="-1" relative="1" as="geometry">
            <mxPoint x="-143" y="352.5" as="sourcePoint" />
            <mxPoint as="offset" />
            <mxPoint x="-114" y="352.00000000000045" as="targetPoint" />
            <Array as="points">
              <mxPoint x="-143" y="351.5" />
            </Array>
          </mxGeometry>
        </mxCell>
        <mxCell id="zqkboVq3bq7hmdZX6oqV-269" style="edgeStyle=orthogonalEdgeStyle;rounded=0;orthogonalLoop=1;jettySize=auto;html=1;exitX=0.5;exitY=0;exitDx=0;exitDy=0;entryX=0.5;entryY=0;entryDx=0;entryDy=0;" edge="1" parent="1" source="zqkboVq3bq7hmdZX6oqV-270" target="zqkboVq3bq7hmdZX6oqV-300">
          <mxGeometry relative="1" as="geometry">
            <mxPoint x="-62" y="140" as="targetPoint" />
            <Array as="points">
              <mxPoint x="190" y="132" />
              <mxPoint x="-12" y="132" />
            </Array>
          </mxGeometry>
        </mxCell>
        <mxCell id="zqkboVq3bq7hmdZX6oqV-270" value="" style="shape=image;html=1;verticalAlign=top;verticalLabelPosition=bottom;labelBackgroundColor=#ffffff;imageAspect=0;aspect=fixed;image=https://cdn4.iconfinder.com/data/icons/essential-app-2/16/record-round-circle-dot-128.png;fontSize=9;" vertex="1" parent="1">
          <mxGeometry x="187" y="442" width="6" height="6" as="geometry" />
        </mxCell>
        <mxCell id="zqkboVq3bq7hmdZX6oqV-271" style="edgeStyle=orthogonalEdgeStyle;rounded=0;orthogonalLoop=1;jettySize=auto;html=1;exitX=1;exitY=0.5;exitDx=0;exitDy=0;entryX=0;entryY=0;entryDx=0;entryDy=0;fontSize=5;endArrow=classic;endFill=1;" edge="1" parent="1" source="zqkboVq3bq7hmdZX6oqV-272" target="zqkboVq3bq7hmdZX6oqV-194">
          <mxGeometry relative="1" as="geometry">
            <Array as="points">
              <mxPoint x="1383" y="471" />
              <mxPoint x="1383" y="494" />
            </Array>
          </mxGeometry>
        </mxCell>
        <mxCell id="zqkboVq3bq7hmdZX6oqV-272" value="MUX&lt;br style=&quot;font-size: 5px;&quot;&gt;2x1" style="rounded=1;whiteSpace=wrap;html=1;fontSize=5;" vertex="1" parent="1">
          <mxGeometry x="1367" y="454.5" width="13" height="33.5" as="geometry" />
        </mxCell>
        <mxCell id="zqkboVq3bq7hmdZX6oqV-273" value="1" style="edgeStyle=orthogonalEdgeStyle;rounded=0;orthogonalLoop=1;jettySize=auto;html=1;fontSize=9;endArrow=classic;endFill=1;strokeWidth=1;" edge="1" parent="1">
          <mxGeometry x="-1" relative="1" as="geometry">
            <mxPoint x="1350" y="478" as="sourcePoint" />
            <Array as="points">
              <mxPoint x="1350" y="478" />
              <mxPoint x="1367" y="478" />
            </Array>
            <mxPoint as="offset" />
            <mxPoint x="1367" y="478" as="targetPoint" />
          </mxGeometry>
        </mxCell>
        <mxCell id="zqkboVq3bq7hmdZX6oqV-274" value="&lt;span style=&quot;font-size: 9px&quot;&gt;inst&lt;/span&gt;&lt;br style=&quot;font-size: 9px&quot;&gt;&lt;span style=&quot;font-size: 9px&quot;&gt;type&lt;/span&gt;" style="edgeStyle=orthogonalEdgeStyle;rounded=0;orthogonalLoop=1;jettySize=auto;html=1;exitX=1;exitY=0.5;exitDx=0;exitDy=0;fontSize=5;endArrow=classic;endFill=1;fillColor=#dae8fc;strokeColor=#6c8ebf;" edge="1" parent="1" source="zqkboVq3bq7hmdZX6oqV-275">
          <mxGeometry relative="1" as="geometry">
            <mxPoint x="740" y="-48.000000000000455" as="targetPoint" />
            <Array as="points">
              <mxPoint x="580" y="166" />
              <mxPoint x="580" y="-48" />
            </Array>
          </mxGeometry>
        </mxCell>
        <mxCell id="zqkboVq3bq7hmdZX6oqV-275" value="M" style="rounded=0;whiteSpace=wrap;html=1;" vertex="1" parent="1">
          <mxGeometry x="220" y="146" width="40" height="40" as="geometry" />
        </mxCell>
        <mxCell id="zqkboVq3bq7hmdZX6oqV-276" value="&lt;span style=&quot;font-size: 9px&quot;&gt;inst&lt;/span&gt;&lt;br style=&quot;font-size: 9px&quot;&gt;&lt;span style=&quot;font-size: 9px&quot;&gt;type&lt;/span&gt;" style="edgeStyle=orthogonalEdgeStyle;rounded=0;orthogonalLoop=1;jettySize=auto;html=1;exitX=1;exitY=0.5;exitDx=0;exitDy=0;entryX=-0.014;entryY=0.442;entryDx=0;entryDy=0;entryPerimeter=0;fontSize=5;endArrow=classic;endFill=1;fillColor=#dae8fc;strokeColor=#6c8ebf;" edge="1" parent="1" source="zqkboVq3bq7hmdZX6oqV-277">
          <mxGeometry x="0.1005" relative="1" as="geometry">
            <Array as="points">
              <mxPoint x="38" y="230" />
              <mxPoint x="38" y="163" />
            </Array>
            <mxPoint as="offset" />
            <mxPoint x="-9" y="231" as="sourcePoint" />
            <mxPoint x="219.4400000000005" y="162.67999999999938" as="targetPoint" />
          </mxGeometry>
        </mxCell>
        <mxCell id="zqkboVq3bq7hmdZX6oqV-277" value="" style="shape=image;html=1;verticalAlign=top;verticalLabelPosition=bottom;labelBackgroundColor=#ffffff;imageAspect=0;aspect=fixed;image=https://cdn4.iconfinder.com/data/icons/essential-app-2/16/record-round-circle-dot-128.png;fontSize=9;" vertex="1" parent="1">
          <mxGeometry x="-16" y="226.88" width="7" height="7" as="geometry" />
        </mxCell>
        <mxCell id="zqkboVq3bq7hmdZX6oqV-278" value="enable update" style="text;html=1;strokeColor=none;fillColor=none;align=center;verticalAlign=middle;whiteSpace=wrap;rounded=0;fontSize=10;" vertex="1" parent="1">
          <mxGeometry x="1141" y="240" width="27" height="11" as="geometry" />
        </mxCell>
        <mxCell id="zqkboVq3bq7hmdZX6oqV-279" style="edgeStyle=orthogonalEdgeStyle;rounded=0;orthogonalLoop=1;jettySize=auto;html=1;exitX=0.5;exitY=1;exitDx=0;exitDy=0;entryX=0.417;entryY=-0.007;entryDx=0;entryDy=0;entryPerimeter=0;fillColor=#dae8fc;strokeColor=#6c8ebf;" edge="1" parent="1" source="zqkboVq3bq7hmdZX6oqV-280" target="zqkboVq3bq7hmdZX6oqV-145">
          <mxGeometry relative="1" as="geometry" />
        </mxCell>
        <mxCell id="zqkboVq3bq7hmdZX6oqV-280" value="" style="shape=image;html=1;verticalAlign=top;verticalLabelPosition=bottom;labelBackgroundColor=#ffffff;imageAspect=0;aspect=fixed;image=https://cdn4.iconfinder.com/data/icons/essential-app-2/16/record-round-circle-dot-128.png;fontSize=9;imageBackground=#ffffff;" vertex="1" parent="1">
          <mxGeometry x="1097" y="180" width="6" height="6" as="geometry" />
        </mxCell>
        <mxCell id="zqkboVq3bq7hmdZX6oqV-281" value="&lt;span style=&quot;color: rgb(0 , 0 , 0) ; font-family: &amp;#34;helvetica&amp;#34; ; font-size: 11px ; font-style: normal ; font-weight: 400 ; letter-spacing: normal ; text-align: center ; text-indent: 0px ; text-transform: none ; word-spacing: 0px ; background-color: rgb(255 , 255 , 255) ; display: inline ; float: none&quot;&gt;m/wb wb en&lt;/span&gt;" style="edgeStyle=orthogonalEdgeStyle;rounded=0;orthogonalLoop=1;jettySize=auto;html=1;exitX=0.5;exitY=0;exitDx=0;exitDy=0;entryX=0.608;entryY=0.983;entryDx=0;entryDy=0;entryPerimeter=0;fillColor=#dae8fc;strokeColor=#6c8ebf;" edge="1" parent="1" source="zqkboVq3bq7hmdZX6oqV-282" target="zqkboVq3bq7hmdZX6oqV-190">
          <mxGeometry relative="1" as="geometry" />
        </mxCell>
        <mxCell id="zqkboVq3bq7hmdZX6oqV-282" value="" style="shape=image;html=1;verticalAlign=top;verticalLabelPosition=bottom;labelBackgroundColor=#ffffff;imageAspect=0;aspect=fixed;image=https://cdn4.iconfinder.com/data/icons/essential-app-2/16/record-round-circle-dot-128.png;fontSize=9;" vertex="1" parent="1">
          <mxGeometry x="1010" y="1173" width="6" height="6" as="geometry" />
        </mxCell>
        <mxCell id="zqkboVq3bq7hmdZX6oqV-283" style="edgeStyle=orthogonalEdgeStyle;rounded=0;orthogonalLoop=1;jettySize=auto;html=1;exitX=0.5;exitY=1;exitDx=0;exitDy=0;entryX=0.178;entryY=0.054;entryDx=0;entryDy=0;entryPerimeter=0;" edge="1" parent="1" source="zqkboVq3bq7hmdZX6oqV-285" target="zqkboVq3bq7hmdZX6oqV-81">
          <mxGeometry relative="1" as="geometry" />
        </mxCell>
        <mxCell id="zqkboVq3bq7hmdZX6oqV-284" value="flags&lt;br&gt;in" style="edgeLabel;html=1;align=center;verticalAlign=middle;resizable=0;points=[];" vertex="1" connectable="0" parent="zqkboVq3bq7hmdZX6oqV-283">
          <mxGeometry x="0.7797" relative="1" as="geometry">
            <mxPoint as="offset" />
          </mxGeometry>
        </mxCell>
        <mxCell id="zqkboVq3bq7hmdZX6oqV-285" value="" style="shape=image;html=1;verticalAlign=top;verticalLabelPosition=bottom;labelBackgroundColor=#ffffff;imageAspect=0;aspect=fixed;image=https://cdn4.iconfinder.com/data/icons/essential-app-2/16/record-round-circle-dot-128.png;fontSize=9;" vertex="1" parent="1">
          <mxGeometry x="1029" y="246" width="8" height="8" as="geometry" />
        </mxCell>
        <mxCell id="zqkboVq3bq7hmdZX6oqV-286" value="" style="shape=image;html=1;verticalAlign=top;verticalLabelPosition=bottom;labelBackgroundColor=#ffffff;imageAspect=0;aspect=fixed;image=https://cdn4.iconfinder.com/data/icons/essential-app-2/16/record-round-circle-dot-128.png;fontSize=9;" vertex="1" parent="1">
          <mxGeometry x="944" y="721" width="8" height="8" as="geometry" />
        </mxCell>
        <mxCell id="zqkboVq3bq7hmdZX6oqV-287" style="edgeStyle=orthogonalEdgeStyle;rounded=0;orthogonalLoop=1;jettySize=auto;html=1;exitX=0.5;exitY=0;exitDx=0;exitDy=0;entryX=0.097;entryY=0.986;entryDx=0;entryDy=0;entryPerimeter=0;" edge="1" parent="1" source="zqkboVq3bq7hmdZX6oqV-289" target="zqkboVq3bq7hmdZX6oqV-17">
          <mxGeometry relative="1" as="geometry">
            <Array as="points">
              <mxPoint x="294" y="-145" />
              <mxPoint x="382" y="-145" />
              <mxPoint x="382" y="-201" />
            </Array>
          </mxGeometry>
        </mxCell>
        <mxCell id="zqkboVq3bq7hmdZX6oqV-288" value="OpCode (decode)" style="edgeLabel;html=1;align=center;verticalAlign=middle;resizable=0;points=[];" vertex="1" connectable="0" parent="zqkboVq3bq7hmdZX6oqV-287">
          <mxGeometry x="-0.4065" y="1" relative="1" as="geometry">
            <mxPoint as="offset" />
          </mxGeometry>
        </mxCell>
        <mxCell id="zqkboVq3bq7hmdZX6oqV-289" value="" style="shape=image;html=1;verticalAlign=top;verticalLabelPosition=bottom;labelBackgroundColor=#ffffff;imageAspect=0;aspect=fixed;image=https://cdn4.iconfinder.com/data/icons/essential-app-2/16/record-round-circle-dot-128.png;fontSize=9;" vertex="1" parent="1">
          <mxGeometry x="291" y="-8.25" width="6" height="6" as="geometry" />
        </mxCell>
        <mxCell id="zqkboVq3bq7hmdZX6oqV-290" style="edgeStyle=orthogonalEdgeStyle;rounded=0;orthogonalLoop=1;jettySize=auto;html=1;exitX=0.5;exitY=0;exitDx=0;exitDy=0;endArrow=classic;endFill=1;entryX=0;entryY=0.167;entryDx=0;entryDy=0;entryPerimeter=0;" edge="1" parent="1" source="zqkboVq3bq7hmdZX6oqV-292" target="zqkboVq3bq7hmdZX6oqV-17">
          <mxGeometry relative="1" as="geometry">
            <mxPoint x="199.5" y="-243.57407124837232" as="targetPoint" />
          </mxGeometry>
        </mxCell>
        <mxCell id="zqkboVq3bq7hmdZX6oqV-291" value="Rdst" style="edgeLabel;html=1;align=center;verticalAlign=middle;resizable=0;points=[];" vertex="1" connectable="0" parent="zqkboVq3bq7hmdZX6oqV-290">
          <mxGeometry x="0.8271" y="2" relative="1" as="geometry">
            <mxPoint as="offset" />
          </mxGeometry>
        </mxCell>
        <mxCell id="zqkboVq3bq7hmdZX6oqV-292" value="" style="shape=image;html=1;verticalAlign=top;verticalLabelPosition=bottom;labelBackgroundColor=#ffffff;imageAspect=0;aspect=fixed;image=https://cdn4.iconfinder.com/data/icons/essential-app-2/16/record-round-circle-dot-128.png;fontSize=9;" vertex="1" parent="1">
          <mxGeometry x="198" y="442" width="6" height="6" as="geometry" />
        </mxCell>
        <mxCell id="zqkboVq3bq7hmdZX6oqV-293" style="edgeStyle=orthogonalEdgeStyle;rounded=0;orthogonalLoop=1;jettySize=auto;html=1;entryX=0.006;entryY=0.472;entryDx=0;entryDy=0;entryPerimeter=0;endArrow=classic;endFill=1;" edge="1" parent="1" source="zqkboVq3bq7hmdZX6oqV-295" target="zqkboVq3bq7hmdZX6oqV-17">
          <mxGeometry relative="1" as="geometry" />
        </mxCell>
        <mxCell id="zqkboVq3bq7hmdZX6oqV-294" value="Rsrc" style="edgeLabel;html=1;align=center;verticalAlign=middle;resizable=0;points=[];" vertex="1" connectable="0" parent="zqkboVq3bq7hmdZX6oqV-293">
          <mxGeometry x="-0.0838" y="1" relative="1" as="geometry">
            <mxPoint as="offset" />
          </mxGeometry>
        </mxCell>
        <mxCell id="zqkboVq3bq7hmdZX6oqV-295" value="" style="shape=image;html=1;verticalAlign=top;verticalLabelPosition=bottom;labelBackgroundColor=#ffffff;imageAspect=0;aspect=fixed;image=https://cdn4.iconfinder.com/data/icons/essential-app-2/16/record-round-circle-dot-128.png;fontSize=9;" vertex="1" parent="1">
          <mxGeometry x="197" y="-236" width="8" height="8" as="geometry" />
        </mxCell>
        <mxCell id="zqkboVq3bq7hmdZX6oqV-296" style="edgeStyle=orthogonalEdgeStyle;rounded=0;orthogonalLoop=1;jettySize=auto;html=1;exitX=1;exitY=0.5;exitDx=0;exitDy=0;entryX=0;entryY=0.75;entryDx=0;entryDy=0;" edge="1" parent="1" source="zqkboVq3bq7hmdZX6oqV-299" target="zqkboVq3bq7hmdZX6oqV-17">
          <mxGeometry relative="1" as="geometry" />
        </mxCell>
        <mxCell id="zqkboVq3bq7hmdZX6oqV-297" value="OpCode (fetch)" style="edgeLabel;html=1;align=center;verticalAlign=middle;resizable=0;points=[];" vertex="1" connectable="0" parent="zqkboVq3bq7hmdZX6oqV-296">
          <mxGeometry x="0.1237" relative="1" as="geometry">
            <mxPoint x="17" as="offset" />
          </mxGeometry>
        </mxCell>
        <mxCell id="zqkboVq3bq7hmdZX6oqV-298" value="inst[29-24]" style="edgeLabel;html=1;align=center;verticalAlign=middle;resizable=0;points=[];" vertex="1" connectable="0" parent="zqkboVq3bq7hmdZX6oqV-296">
          <mxGeometry x="-0.4107" y="1" relative="1" as="geometry">
            <mxPoint x="-16" y="1" as="offset" />
          </mxGeometry>
        </mxCell>
        <mxCell id="zqkboVq3bq7hmdZX6oqV-299" value="" style="shape=image;html=1;verticalAlign=top;verticalLabelPosition=bottom;labelBackgroundColor=#ffffff;imageAspect=0;aspect=fixed;image=https://cdn4.iconfinder.com/data/icons/essential-app-2/16/record-round-circle-dot-128.png;fontSize=9;" vertex="1" parent="1">
          <mxGeometry x="197" y="-219" width="8" height="8" as="geometry" />
        </mxCell>
        <mxCell id="zqkboVq3bq7hmdZX6oqV-300" value="" style="rounded=0;whiteSpace=wrap;html=1;" vertex="1" parent="1">
          <mxGeometry x="-37" y="164" width="50" height="22" as="geometry" />
        </mxCell>
      </root>
    </mxGraphModel>
  </diagram>
</mxfile>
